ISO-10303-21;
HEADER;
FILE_DESCRIPTION(('STEP AP242'),'1');
FILE_NAME('s1751-46r.stp','2023-11-02T00:44:59',('TraceParts'),('TraceParts S.A.'),'Spatial InterOp 3D',' ',' ');
FILE_SCHEMA(('AP242_MANAGED_MODEL_BASED_3D_ENGINEERING_MIM_LF  {1 0 10303 442 1 1 4}'));
ENDSEC;
DATA;
#1=MECHANICAL_DESIGN_GEOMETRIC_PRESENTATION_REPRESENTATION(' ',(#10),#6);
#2=PRODUCT_DEFINITION_CONTEXT('',#11,'design');
#3=APPLICATION_PROTOCOL_DEFINITION('INTERNATIONAL STANDARD','ap242_managed_model_based_3d_engineering',2014,#11);
#4=PRODUCT_CATEGORY_RELATIONSHIP('NONE','NONE',#12,#13);
#5=SHAPE_DEFINITION_REPRESENTATION(#14,#15);
#6= (GEOMETRIC_REPRESENTATION_CONTEXT(3)GLOBAL_UNCERTAINTY_ASSIGNED_CONTEXT((#18))GLOBAL_UNIT_ASSIGNED_CONTEXT((#20,#21,#22))REPRESENTATION_CONTEXT('NONE','WORKSPACE'));
#10=STYLED_ITEM('',(#24),#25);
#11=APPLICATION_CONTEXT('managed model based 3d engineering');
#12=PRODUCT_CATEGORY('part','NONE');
#13=PRODUCT_RELATED_PRODUCT_CATEGORY('detail',' ',(#26));
#14=PRODUCT_DEFINITION_SHAPE('NONE','NONE',#27);
#15=ADVANCED_BREP_SHAPE_REPRESENTATION('s1751-46r',(#25,#28),#6);
#18=UNCERTAINTY_MEASURE_WITH_UNIT(LENGTH_MEASURE(1.0E-06),#20,'','');
#20= (CONVERSION_BASED_UNIT('MILLIMETRE',#31)LENGTH_UNIT()NAMED_UNIT(#34));
#21= (NAMED_UNIT(#36)PLANE_ANGLE_UNIT()SI_UNIT($,.RADIAN.));
#22= (NAMED_UNIT(#36)SOLID_ANGLE_UNIT()SI_UNIT($,.STERADIAN.));
#24=PRESENTATION_STYLE_ASSIGNMENT((#42));
#25=MANIFOLD_SOLID_BREP('s1751-46r',#43);
#26=PRODUCT('s1751-46r','','PART--DESC',(#44));
#27=PRODUCT_DEFINITION('','NONE',#45,#2);
#28=AXIS2_PLACEMENT_3D('',#46,#47,#48);
#31=LENGTH_MEASURE_WITH_UNIT(LENGTH_MEASURE(1.0),#49);
#34=DIMENSIONAL_EXPONENTS(1.0,0.0,0.0,0.0,0.0,0.0,0.0);
#36=DIMENSIONAL_EXPONENTS(0.0,0.0,0.0,0.0,0.0,0.0,0.0);
#42=SURFACE_STYLE_USAGE(.BOTH.,#50);
#43=CLOSED_SHELL('',(#51,#52,#53,#54,#55,#56,#57,#58,#59,#60,#61,#62,#63,#64,#65,#66,#67,#68,#69,#70,#71,#72,#73,#74,#75,#76,#77,#78,#79,#80,#81,#82,#83,#84,#85,#86,#87,#88,#89,#90,#91,#92,#93,#94,#95,#96,#97,#98,#99,#100,#101,#102,#103,#104));
#44=PRODUCT_CONTEXT('',#11,'mechanical');
#45=PRODUCT_DEFINITION_FORMATION_WITH_SPECIFIED_SOURCE(' ','NONE',#26,.NOT_KNOWN.);
#46=CARTESIAN_POINT('',(0.0,0.0,0.0));
#47=DIRECTION('',(0.0,0.0,1.0));
#48=DIRECTION('',(1.0,0.0,0.0));
#49= (NAMED_UNIT(#34)LENGTH_UNIT()SI_UNIT(.MILLI.,.METRE.));
#50=SURFACE_SIDE_STYLE('',(#106));
#51=ADVANCED_FACE('',(#107),#108,.F.);
#52=ADVANCED_FACE('',(#109),#110,.T.);
#53=ADVANCED_FACE('',(#111),#112,.F.);
#54=ADVANCED_FACE('',(#113),#114,.F.);
#55=ADVANCED_FACE('',(#115),#116,.T.);
#56=ADVANCED_FACE('',(#117),#118,.T.);
#57=ADVANCED_FACE('',(#119),#120,.T.);
#58=ADVANCED_FACE('',(#121),#122,.F.);
#59=ADVANCED_FACE('',(#123),#124,.T.);
#60=ADVANCED_FACE('',(#125),#126,.F.);
#61=ADVANCED_FACE('',(#127),#128,.F.);
#62=ADVANCED_FACE('',(#129),#130,.T.);
#63=ADVANCED_FACE('',(#131),#132,.T.);
#64=ADVANCED_FACE('',(#133),#134,.T.);
#65=ADVANCED_FACE('',(#135),#136,.T.);
#66=ADVANCED_FACE('',(#137),#138,.T.);
#67=ADVANCED_FACE('',(#139),#140,.F.);
#68=ADVANCED_FACE('',(#141),#142,.F.);
#69=ADVANCED_FACE('',(#143),#144,.F.);
#70=ADVANCED_FACE('',(#145),#146,.T.);
#71=ADVANCED_FACE('',(#147),#148,.F.);
#72=ADVANCED_FACE('',(#149),#150,.T.);
#73=ADVANCED_FACE('',(#151),#152,.F.);
#74=ADVANCED_FACE('',(#153),#154,.F.);
#75=ADVANCED_FACE('',(#155),#156,.F.);
#76=ADVANCED_FACE('',(#157),#158,.T.);
#77=ADVANCED_FACE('',(#159),#160,.T.);
#78=ADVANCED_FACE('',(#161),#162,.F.);
#79=ADVANCED_FACE('',(#163),#164,.F.);
#80=ADVANCED_FACE('',(#165),#166,.F.);
#81=ADVANCED_FACE('',(#167),#168,.F.);
#82=ADVANCED_FACE('',(#169),#170,.F.);
#83=ADVANCED_FACE('',(#171),#172,.T.);
#84=ADVANCED_FACE('',(#173),#174,.T.);
#85=ADVANCED_FACE('',(#175),#176,.T.);
#86=ADVANCED_FACE('',(#177),#178,.T.);
#87=ADVANCED_FACE('',(#179),#180,.T.);
#88=ADVANCED_FACE('',(#181),#182,.F.);
#89=ADVANCED_FACE('',(#183),#184,.F.);
#90=ADVANCED_FACE('',(#185),#186,.F.);
#91=ADVANCED_FACE('',(#187),#188,.T.);
#92=ADVANCED_FACE('',(#189),#190,.F.);
#93=ADVANCED_FACE('',(#191),#192,.T.);
#94=ADVANCED_FACE('',(#193),#194,.F.);
#95=ADVANCED_FACE('',(#195),#196,.F.);
#96=ADVANCED_FACE('',(#197),#198,.F.);
#97=ADVANCED_FACE('',(#199),#200,.F.);
#98=ADVANCED_FACE('',(#201),#202,.F.);
#99=ADVANCED_FACE('',(#203),#204,.T.);
#100=ADVANCED_FACE('',(#205),#206,.F.);
#101=ADVANCED_FACE('',(#207),#208,.T.);
#102=ADVANCED_FACE('',(#209),#210,.F.);
#103=ADVANCED_FACE('',(#211),#212,.F.);
#104=ADVANCED_FACE('',(#213),#214,.F.);
#106=SURFACE_STYLE_FILL_AREA(#215);
#107=FACE_OUTER_BOUND('',#216,.T.);
#108=PLANE('',#217);
#109=FACE_OUTER_BOUND('',#218,.T.);
#110=PLANE('',#219);
#111=FACE_OUTER_BOUND('',#220,.T.);
#112=CYLINDRICAL_SURFACE('',#221,0.38);
#113=FACE_OUTER_BOUND('',#222,.T.);
#114=PLANE('',#223);
#115=FACE_OUTER_BOUND('',#224,.T.);
#116=PLANE('',#225);
#117=FACE_OUTER_BOUND('',#226,.T.);
#118=PLANE('',#227);
#119=FACE_OUTER_BOUND('',#228,.T.);
#120=PLANE('',#229);
#121=FACE_OUTER_BOUND('',#230,.T.);
#122=PLANE('',#231);
#123=FACE_OUTER_BOUND('',#232,.T.);
#124=PLANE('',#233);
#125=FACE_OUTER_BOUND('',#234,.T.);
#126=PLANE('',#235);
#127=FACE_OUTER_BOUND('',#236,.T.);
#128=CYLINDRICAL_SURFACE('',#237,0.1);
#129=FACE_OUTER_BOUND('',#238,.T.);
#130=CYLINDRICAL_SURFACE('',#239,0.1);
#131=FACE_OUTER_BOUND('',#240,.T.);
#132=PLANE('',#241);
#133=FACE_OUTER_BOUND('',#242,.T.);
#134=CYLINDRICAL_SURFACE('',#243,0.76);
#135=FACE_OUTER_BOUND('',#244,.T.);
#136=PLANE('',#245);
#137=FACE_OUTER_BOUND('',#246,.T.);
#138=CYLINDRICAL_SURFACE('',#247,0.1);
#139=FACE_OUTER_BOUND('',#248,.T.);
#140=PLANE('',#249);
#141=FACE_OUTER_BOUND('',#250,.T.);
#142=CYLINDRICAL_SURFACE('',#251,0.1);
#143=FACE_OUTER_BOUND('',#252,.T.);
#144=PLANE('',#253);
#145=FACE_OUTER_BOUND('',#254,.T.);
#146=CYLINDRICAL_SURFACE('',#255,0.1);
#147=FACE_OUTER_BOUND('',#256,.T.);
#148=PLANE('',#257);
#149=FACE_OUTER_BOUND('',#258,.T.);
#150=CYLINDRICAL_SURFACE('',#259,0.1);
#151=FACE_OUTER_BOUND('',#260,.T.);
#152=PLANE('',#261);
#153=FACE_OUTER_BOUND('',#262,.T.);
#154=CYLINDRICAL_SURFACE('',#263,0.1);
#155=FACE_OUTER_BOUND('',#264,.T.);
#156=PLANE('',#265);
#157=FACE_OUTER_BOUND('',#266,.T.);
#158=CYLINDRICAL_SURFACE('',#267,0.1);
#159=FACE_OUTER_BOUND('',#268,.T.);
#160=CYLINDRICAL_SURFACE('',#269,0.76);
#161=FACE_OUTER_BOUND('',#270,.T.);
#162=CYLINDRICAL_SURFACE('',#271,0.38);
#163=FACE_OUTER_BOUND('',#272,.T.);
#164=PLANE('',#273);
#165=FACE_OUTER_BOUND('',#274,.T.);
#166=CYLINDRICAL_SURFACE('',#275,0.38);
#167=FACE_OUTER_BOUND('',#276,.T.);
#168=PLANE('',#277);
#169=FACE_OUTER_BOUND('',#278,.T.);
#170=CYLINDRICAL_SURFACE('',#279,0.1);
#171=FACE_OUTER_BOUND('',#280,.T.);
#172=CYLINDRICAL_SURFACE('',#281,0.1);
#173=FACE_OUTER_BOUND('',#282,.T.);
#174=PLANE('',#283);
#175=FACE_OUTER_BOUND('',#284,.T.);
#176=CYLINDRICAL_SURFACE('',#285,0.76);
#177=FACE_OUTER_BOUND('',#286,.T.);
#178=PLANE('',#287);
#179=FACE_OUTER_BOUND('',#288,.T.);
#180=CYLINDRICAL_SURFACE('',#289,0.1);
#181=FACE_OUTER_BOUND('',#290,.T.);
#182=PLANE('',#291);
#183=FACE_OUTER_BOUND('',#292,.T.);
#184=CYLINDRICAL_SURFACE('',#293,0.38);
#185=FACE_OUTER_BOUND('',#294,.T.);
#186=PLANE('',#295);
#187=FACE_OUTER_BOUND('',#296,.T.);
#188=CYLINDRICAL_SURFACE('',#297,0.1);
#189=FACE_OUTER_BOUND('',#298,.T.);
#190=PLANE('',#299);
#191=FACE_OUTER_BOUND('',#300,.T.);
#192=CYLINDRICAL_SURFACE('',#301,0.1);
#193=FACE_OUTER_BOUND('',#302,.T.);
#194=PLANE('',#303);
#195=FACE_OUTER_BOUND('',#304,.T.);
#196=CYLINDRICAL_SURFACE('',#305,0.1);
#197=FACE_OUTER_BOUND('',#306,.T.);
#198=PLANE('',#307);
#199=FACE_OUTER_BOUND('',#308,.T.);
#200=CYLINDRICAL_SURFACE('',#309,0.1);
#201=FACE_OUTER_BOUND('',#310,.T.);
#202=PLANE('',#311);
#203=FACE_OUTER_BOUND('',#312,.T.);
#204=CYLINDRICAL_SURFACE('',#313,0.1);
#205=FACE_OUTER_BOUND('',#314,.T.);
#206=PLANE('',#315);
#207=FACE_OUTER_BOUND('',#316,.T.);
#208=CYLINDRICAL_SURFACE('',#317,0.76);
#209=FACE_OUTER_BOUND('',#318,.T.);
#210=CYLINDRICAL_SURFACE('',#319,0.1);
#211=FACE_OUTER_BOUND('',#320,.T.);
#212=PLANE('',#321);
#213=FACE_OUTER_BOUND('',#322,.T.);
#214=CYLINDRICAL_SURFACE('',#323,0.1);
#215=FILL_AREA_STYLE('',(#324));
#216=EDGE_LOOP('',(#325,#326,#327,#328,#329,#330,#331,#332,#333,#334,#335,#336,#337,#338,#339,#340,#341,#342,#343,#344));
#217=AXIS2_PLACEMENT_3D('',#345,#346,#347);
#218=EDGE_LOOP('',(#348,#349,#350,#351,#352,#353,#354,#355,#356,#357,#358,#359,#360,#361));
#219=AXIS2_PLACEMENT_3D('',#362,#363,#364);
#220=EDGE_LOOP('',(#365,#366,#367,#368));
#221=AXIS2_PLACEMENT_3D('',#369,#370,#371);
#222=EDGE_LOOP('',(#372,#373,#374,#375,#376,#377,#378));
#223=AXIS2_PLACEMENT_3D('',#379,#380,#381);
#224=EDGE_LOOP('',(#382,#383,#384,#385));
#225=AXIS2_PLACEMENT_3D('',#386,#387,#388);
#226=EDGE_LOOP('',(#389,#390,#391,#392,#393,#394,#395,#396));
#227=AXIS2_PLACEMENT_3D('',#397,#398,#399);
#228=EDGE_LOOP('',(#400,#401,#402,#403,#404,#405,#406,#407));
#229=AXIS2_PLACEMENT_3D('',#408,#409,#410);
#230=EDGE_LOOP('',(#411,#412,#413,#414));
#231=AXIS2_PLACEMENT_3D('',#415,#416,#417);
#232=EDGE_LOOP('',(#418,#419,#420,#421,#422,#423,#424,#425,#426,#427));
#233=AXIS2_PLACEMENT_3D('',#428,#429,#430);
#234=EDGE_LOOP('',(#431,#432,#433,#434,#435,#436,#437,#438));
#235=AXIS2_PLACEMENT_3D('',#439,#440,#441);
#236=EDGE_LOOP('',(#442,#443,#444,#445));
#237=AXIS2_PLACEMENT_3D('',#446,#447,#448);
#238=EDGE_LOOP('',(#449,#450,#451,#452));
#239=AXIS2_PLACEMENT_3D('',#453,#454,#455);
#240=EDGE_LOOP('',(#456,#457,#458,#459,#460,#461,#462));
#241=AXIS2_PLACEMENT_3D('',#463,#464,#465);
#242=EDGE_LOOP('',(#466,#467,#468,#469));
#243=AXIS2_PLACEMENT_3D('',#470,#471,#472);
#244=EDGE_LOOP('',(#473,#474,#475,#476,#477,#478,#479,#480,#481,#482,#483,#484,#485,#486));
#245=AXIS2_PLACEMENT_3D('',#487,#488,#489);
#246=EDGE_LOOP('',(#490,#491,#492,#493));
#247=AXIS2_PLACEMENT_3D('',#494,#495,#496);
#248=EDGE_LOOP('',(#497,#498,#499,#500));
#249=AXIS2_PLACEMENT_3D('',#501,#502,#503);
#250=EDGE_LOOP('',(#504,#505,#506,#507));
#251=AXIS2_PLACEMENT_3D('',#508,#509,#510);
#252=EDGE_LOOP('',(#511,#512,#513,#514));
#253=AXIS2_PLACEMENT_3D('',#515,#516,#517);
#254=EDGE_LOOP('',(#518,#519,#520,#521));
#255=AXIS2_PLACEMENT_3D('',#522,#523,#524);
#256=EDGE_LOOP('',(#525,#526,#527,#528));
#257=AXIS2_PLACEMENT_3D('',#529,#530,#531);
#258=EDGE_LOOP('',(#532,#533,#534,#535));
#259=AXIS2_PLACEMENT_3D('',#536,#537,#538);
#260=EDGE_LOOP('',(#539,#540,#541,#542));
#261=AXIS2_PLACEMENT_3D('',#543,#544,#545);
#262=EDGE_LOOP('',(#546,#547,#548,#549));
#263=AXIS2_PLACEMENT_3D('',#550,#551,#552);
#264=EDGE_LOOP('',(#553,#554,#555,#556));
#265=AXIS2_PLACEMENT_3D('',#557,#558,#559);
#266=EDGE_LOOP('',(#560,#561,#562,#563));
#267=AXIS2_PLACEMENT_3D('',#564,#565,#566);
#268=EDGE_LOOP('',(#567,#568,#569,#570));
#269=AXIS2_PLACEMENT_3D('',#571,#572,#573);
#270=EDGE_LOOP('',(#574,#575,#576,#577));
#271=AXIS2_PLACEMENT_3D('',#578,#579,#580);
#272=EDGE_LOOP('',(#581,#582,#583,#584,#585,#586,#587,#588,#589,#590));
#273=AXIS2_PLACEMENT_3D('',#591,#592,#593);
#274=EDGE_LOOP('',(#594,#595,#596,#597));
#275=AXIS2_PLACEMENT_3D('',#598,#599,#600);
#276=EDGE_LOOP('',(#601,#602,#603,#604,#605,#606,#607,#608));
#277=AXIS2_PLACEMENT_3D('',#609,#610,#611);
#278=EDGE_LOOP('',(#612,#613,#614,#615));
#279=AXIS2_PLACEMENT_3D('',#616,#617,#618);
#280=EDGE_LOOP('',(#619,#620,#621,#622));
#281=AXIS2_PLACEMENT_3D('',#623,#624,#625);
#282=EDGE_LOOP('',(#626,#627,#628,#629,#630,#631,#632));
#283=AXIS2_PLACEMENT_3D('',#633,#634,#635);
#284=EDGE_LOOP('',(#636,#637,#638,#639));
#285=AXIS2_PLACEMENT_3D('',#640,#641,#642);
#286=EDGE_LOOP('',(#643,#644,#645,#646,#647,#648,#649,#650,#651,#652,#653,#654,#655,#656));
#287=AXIS2_PLACEMENT_3D('',#657,#658,#659);
#288=EDGE_LOOP('',(#660,#661,#662,#663));
#289=AXIS2_PLACEMENT_3D('',#664,#665,#666);
#290=EDGE_LOOP('',(#667,#668,#669,#670,#671,#672,#673,#674,#675,#676,#677,#678,#679,#680));
#291=AXIS2_PLACEMENT_3D('',#681,#682,#683);
#292=EDGE_LOOP('',(#684,#685,#686,#687));
#293=AXIS2_PLACEMENT_3D('',#688,#689,#690);
#294=EDGE_LOOP('',(#691,#692,#693,#694,#695,#696,#697));
#295=AXIS2_PLACEMENT_3D('',#698,#699,#700);
#296=EDGE_LOOP('',(#701,#702,#703,#704));
#297=AXIS2_PLACEMENT_3D('',#705,#706,#707);
#298=EDGE_LOOP('',(#708,#709,#710,#711));
#299=AXIS2_PLACEMENT_3D('',#712,#713,#714);
#300=EDGE_LOOP('',(#715,#716,#717,#718));
#301=AXIS2_PLACEMENT_3D('',#719,#720,#721);
#302=EDGE_LOOP('',(#722,#723,#724,#725));
#303=AXIS2_PLACEMENT_3D('',#726,#727,#728);
#304=EDGE_LOOP('',(#729,#730,#731,#732));
#305=AXIS2_PLACEMENT_3D('',#733,#734,#735);
#306=EDGE_LOOP('',(#736,#737,#738,#739));
#307=AXIS2_PLACEMENT_3D('',#740,#741,#742);
#308=EDGE_LOOP('',(#743,#744,#745,#746));
#309=AXIS2_PLACEMENT_3D('',#747,#748,#749);
#310=EDGE_LOOP('',(#750,#751,#752,#753));
#311=AXIS2_PLACEMENT_3D('',#754,#755,#756);
#312=EDGE_LOOP('',(#757,#758,#759,#760));
#313=AXIS2_PLACEMENT_3D('',#761,#762,#763);
#314=EDGE_LOOP('',(#764,#765,#766,#767));
#315=AXIS2_PLACEMENT_3D('',#768,#769,#770);
#316=EDGE_LOOP('',(#771,#772,#773,#774));
#317=AXIS2_PLACEMENT_3D('',#775,#776,#777);
#318=EDGE_LOOP('',(#778,#779,#780,#781));
#319=AXIS2_PLACEMENT_3D('',#782,#783,#784);
#320=EDGE_LOOP('',(#785,#786,#787,#788));
#321=AXIS2_PLACEMENT_3D('',#789,#790,#791);
#322=EDGE_LOOP('',(#792,#793,#794,#795));
#323=AXIS2_PLACEMENT_3D('',#796,#797,#798);
#324=FILL_AREA_STYLE_COLOUR('',#799);
#325=ORIENTED_EDGE('',*,*,#800,.T.);
#326=ORIENTED_EDGE('',*,*,#801,.T.);
#327=ORIENTED_EDGE('',*,*,#802,.T.);
#328=ORIENTED_EDGE('',*,*,#803,.T.);
#329=ORIENTED_EDGE('',*,*,#804,.T.);
#330=ORIENTED_EDGE('',*,*,#805,.T.);
#331=ORIENTED_EDGE('',*,*,#806,.T.);
#332=ORIENTED_EDGE('',*,*,#807,.T.);
#333=ORIENTED_EDGE('',*,*,#808,.T.);
#334=ORIENTED_EDGE('',*,*,#809,.T.);
#335=ORIENTED_EDGE('',*,*,#810,.F.);
#336=ORIENTED_EDGE('',*,*,#811,.F.);
#337=ORIENTED_EDGE('',*,*,#812,.F.);
#338=ORIENTED_EDGE('',*,*,#813,.F.);
#339=ORIENTED_EDGE('',*,*,#814,.F.);
#340=ORIENTED_EDGE('',*,*,#815,.F.);
#341=ORIENTED_EDGE('',*,*,#816,.T.);
#342=ORIENTED_EDGE('',*,*,#817,.T.);
#343=ORIENTED_EDGE('',*,*,#818,.T.);
#344=ORIENTED_EDGE('',*,*,#819,.F.);
#345=CARTESIAN_POINT('',(0.0,0.0,0.0));
#346=DIRECTION('',(0.0,0.0,1.0));
#347=DIRECTION('',(1.0,0.0,0.0));
#348=ORIENTED_EDGE('',*,*,#800,.F.);
#349=ORIENTED_EDGE('',*,*,#820,.T.);
#350=ORIENTED_EDGE('',*,*,#821,.T.);
#351=ORIENTED_EDGE('',*,*,#822,.F.);
#352=ORIENTED_EDGE('',*,*,#823,.T.);
#353=ORIENTED_EDGE('',*,*,#824,.F.);
#354=ORIENTED_EDGE('',*,*,#825,.T.);
#355=ORIENTED_EDGE('',*,*,#826,.F.);
#356=ORIENTED_EDGE('',*,*,#827,.T.);
#357=ORIENTED_EDGE('',*,*,#828,.F.);
#358=ORIENTED_EDGE('',*,*,#829,.T.);
#359=ORIENTED_EDGE('',*,*,#830,.F.);
#360=ORIENTED_EDGE('',*,*,#831,.F.);
#361=ORIENTED_EDGE('',*,*,#832,.T.);
#362=CARTESIAN_POINT('',(-0.86,-1.67,1.65));
#363=DIRECTION('',(-0.0,1.0,0.0));
#364=DIRECTION('',(1.0,0.0,0.0));
#365=ORIENTED_EDGE('',*,*,#801,.F.);
#366=ORIENTED_EDGE('',*,*,#832,.F.);
#367=ORIENTED_EDGE('',*,*,#833,.T.);
#368=ORIENTED_EDGE('',*,*,#834,.T.);
#369=CARTESIAN_POINT('',(0.87,-1.29,1.65));
#370=DIRECTION('',(0.0,0.0,-1.0));
#371=DIRECTION('',(1.0,0.0,0.0));
#372=ORIENTED_EDGE('',*,*,#835,.F.);
#373=ORIENTED_EDGE('',*,*,#836,.T.);
#374=ORIENTED_EDGE('',*,*,#837,.T.);
#375=ORIENTED_EDGE('',*,*,#838,.F.);
#376=ORIENTED_EDGE('',*,*,#839,.T.);
#377=ORIENTED_EDGE('',*,*,#802,.F.);
#378=ORIENTED_EDGE('',*,*,#834,.F.);
#379=CARTESIAN_POINT('',(1.25,-1.24,1.65));
#380=DIRECTION('',(1.0,0.0,0.0));
#381=DIRECTION('',(0.0,1.0,0.0));
#382=ORIENTED_EDGE('',*,*,#840,.F.);
#383=ORIENTED_EDGE('',*,*,#841,.T.);
#384=ORIENTED_EDGE('',*,*,#842,.T.);
#385=ORIENTED_EDGE('',*,*,#843,.F.);
#386=CARTESIAN_POINT('',(0.0,0.0,1.65));
#387=DIRECTION('',(0.0,0.0,1.0));
#388=DIRECTION('',(1.0,0.0,0.0));
#389=ORIENTED_EDGE('',*,*,#844,.T.);
#390=ORIENTED_EDGE('',*,*,#845,.T.);
#391=ORIENTED_EDGE('',*,*,#846,.T.);
#392=ORIENTED_EDGE('',*,*,#847,.T.);
#393=ORIENTED_EDGE('',*,*,#848,.T.);
#394=ORIENTED_EDGE('',*,*,#849,.F.);
#395=ORIENTED_EDGE('',*,*,#850,.F.);
#396=ORIENTED_EDGE('',*,*,#851,.F.);
#397=CARTESIAN_POINT('',(0.0,0.0,1.65));
#398=DIRECTION('',(0.0,0.0,1.0));
#399=DIRECTION('',(1.0,0.0,0.0));
#400=ORIENTED_EDGE('',*,*,#831,.T.);
#401=ORIENTED_EDGE('',*,*,#852,.T.);
#402=ORIENTED_EDGE('',*,*,#853,.T.);
#403=ORIENTED_EDGE('',*,*,#854,.F.);
#404=ORIENTED_EDGE('',*,*,#855,.T.);
#405=ORIENTED_EDGE('',*,*,#856,.T.);
#406=ORIENTED_EDGE('',*,*,#835,.T.);
#407=ORIENTED_EDGE('',*,*,#833,.F.);
#408=CARTESIAN_POINT('',(0.0,0.0,1.65));
#409=DIRECTION('',(0.0,0.0,1.0));
#410=DIRECTION('',(1.0,0.0,0.0));
#411=ORIENTED_EDGE('',*,*,#840,.T.);
#412=ORIENTED_EDGE('',*,*,#857,.T.);
#413=ORIENTED_EDGE('',*,*,#858,.F.);
#414=ORIENTED_EDGE('',*,*,#859,.F.);
#415=CARTESIAN_POINT('',(0.5,0.0,1.55));
#416=DIRECTION('',(-1.0,0.0,0.0));
#417=DIRECTION('',(0.0,0.0,1.0));
#418=ORIENTED_EDGE('',*,*,#860,.F.);
#419=ORIENTED_EDGE('',*,*,#861,.F.);
#420=ORIENTED_EDGE('',*,*,#814,.T.);
#421=ORIENTED_EDGE('',*,*,#862,.T.);
#422=ORIENTED_EDGE('',*,*,#863,.T.);
#423=ORIENTED_EDGE('',*,*,#864,.F.);
#424=ORIENTED_EDGE('',*,*,#865,.F.);
#425=ORIENTED_EDGE('',*,*,#841,.F.);
#426=ORIENTED_EDGE('',*,*,#859,.T.);
#427=ORIENTED_EDGE('',*,*,#866,.F.);
#428=CARTESIAN_POINT('',(0.87,0.0,0.0));
#429=DIRECTION('',(-0.0,1.0,0.0));
#430=DIRECTION('',(1.0,0.0,0.0));
#431=ORIENTED_EDGE('',*,*,#867,.T.);
#432=ORIENTED_EDGE('',*,*,#868,.F.);
#433=ORIENTED_EDGE('',*,*,#869,.T.);
#434=ORIENTED_EDGE('',*,*,#860,.T.);
#435=ORIENTED_EDGE('',*,*,#870,.T.);
#436=ORIENTED_EDGE('',*,*,#871,.F.);
#437=ORIENTED_EDGE('',*,*,#872,.F.);
#438=ORIENTED_EDGE('',*,*,#838,.T.);
#439=CARTESIAN_POINT('',(1.63,0.0,1.45));
#440=DIRECTION('',(0.0,0.0,-1.0));
#441=DIRECTION('',(0.0,-1.0,0.0));
#442=ORIENTED_EDGE('',*,*,#873,.F.);
#443=ORIENTED_EDGE('',*,*,#874,.F.);
#444=ORIENTED_EDGE('',*,*,#867,.F.);
#445=ORIENTED_EDGE('',*,*,#837,.F.);
#446=CARTESIAN_POINT('',(0.5909188356629,-0.9,1.55));
#447=DIRECTION('',(-1.0,0.0,-0.0));
#448=DIRECTION('',(0.0,0.0,-1.0));
#449=ORIENTED_EDGE('',*,*,#856,.F.);
#450=ORIENTED_EDGE('',*,*,#875,.F.);
#451=ORIENTED_EDGE('',*,*,#873,.T.);
#452=ORIENTED_EDGE('',*,*,#836,.F.);
#453=CARTESIAN_POINT('',(1.636700994307,-1.1,1.55));
#454=DIRECTION('',(1.0,-0.0,0.0));
#455=DIRECTION('',(0.0,1.0,0.0));
#456=ORIENTED_EDGE('',*,*,#816,.F.);
#457=ORIENTED_EDGE('',*,*,#876,.T.);
#458=ORIENTED_EDGE('',*,*,#868,.T.);
#459=ORIENTED_EDGE('',*,*,#874,.T.);
#460=ORIENTED_EDGE('',*,*,#875,.T.);
#461=ORIENTED_EDGE('',*,*,#855,.F.);
#462=ORIENTED_EDGE('',*,*,#877,.T.);
#463=CARTESIAN_POINT('',(1.63,-1.24,0.0));
#464=DIRECTION('',(1.0,0.0,0.0));
#465=DIRECTION('',(0.0,1.0,0.0));
#466=ORIENTED_EDGE('',*,*,#854,.T.);
#467=ORIENTED_EDGE('',*,*,#878,.T.);
#468=ORIENTED_EDGE('',*,*,#817,.F.);
#469=ORIENTED_EDGE('',*,*,#877,.F.);
#470=CARTESIAN_POINT('',(0.87,-1.29,1.65));
#471=DIRECTION('',(0.0,0.0,1.0));
#472=DIRECTION('',(-1.0,0.0,0.0));
#473=ORIENTED_EDGE('',*,*,#853,.F.);
#474=ORIENTED_EDGE('',*,*,#879,.T.);
#475=ORIENTED_EDGE('',*,*,#880,.T.);
#476=ORIENTED_EDGE('',*,*,#881,.T.);
#477=ORIENTED_EDGE('',*,*,#882,.T.);
#478=ORIENTED_EDGE('',*,*,#883,.T.);
#479=ORIENTED_EDGE('',*,*,#884,.T.);
#480=ORIENTED_EDGE('',*,*,#885,.T.);
#481=ORIENTED_EDGE('',*,*,#886,.T.);
#482=ORIENTED_EDGE('',*,*,#887,.T.);
#483=ORIENTED_EDGE('',*,*,#888,.T.);
#484=ORIENTED_EDGE('',*,*,#889,.T.);
#485=ORIENTED_EDGE('',*,*,#818,.F.);
#486=ORIENTED_EDGE('',*,*,#878,.F.);
#487=CARTESIAN_POINT('',(-0.86,-2.05,0.0));
#488=DIRECTION('',(0.0,-1.0,0.0));
#489=DIRECTION('',(0.0,0.0,-1.0));
#490=ORIENTED_EDGE('',*,*,#890,.F.);
#491=ORIENTED_EDGE('',*,*,#820,.F.);
#492=ORIENTED_EDGE('',*,*,#819,.T.);
#493=ORIENTED_EDGE('',*,*,#889,.F.);
#494=CARTESIAN_POINT('',(0.2,-2.006505432234,0.1));
#495=DIRECTION('',(-0.0,-1.0,0.0));
#496=DIRECTION('',(-1.0,0.0,0.0));
#497=ORIENTED_EDGE('',*,*,#891,.F.);
#498=ORIENTED_EDGE('',*,*,#821,.F.);
#499=ORIENTED_EDGE('',*,*,#890,.T.);
#500=ORIENTED_EDGE('',*,*,#888,.F.);
#501=CARTESIAN_POINT('',(0.1,-2.0,0.0));
#502=DIRECTION('',(1.0,0.0,0.0));
#503=DIRECTION('',(0.0,1.0,0.0));
#504=ORIENTED_EDGE('',*,*,#892,.F.);
#505=ORIENTED_EDGE('',*,*,#822,.T.);
#506=ORIENTED_EDGE('',*,*,#891,.T.);
#507=ORIENTED_EDGE('',*,*,#887,.F.);
#508=CARTESIAN_POINT('',(0.0,-2.006505432234,0.4345984425214));
#509=DIRECTION('',(0.0,-1.0,0.0));
#510=DIRECTION('',(1.0,0.0,0.0));
#511=ORIENTED_EDGE('',*,*,#893,.F.);
#512=ORIENTED_EDGE('',*,*,#823,.F.);
#513=ORIENTED_EDGE('',*,*,#892,.T.);
#514=ORIENTED_EDGE('',*,*,#886,.F.);
#515=CARTESIAN_POINT('',(0.1,-2.0,0.5));
#516=DIRECTION('',(0.400818834019697,0.0,0.916157334902194));
#517=DIRECTION('',(0.0,-1.0,0.0));
#518=ORIENTED_EDGE('',*,*,#894,.F.);
#519=ORIENTED_EDGE('',*,*,#824,.T.);
#520=ORIENTED_EDGE('',*,*,#893,.T.);
#521=ORIENTED_EDGE('',*,*,#885,.F.);
#522=CARTESIAN_POINT('',(-0.2,-1.614441447396,0.7404015574786));
#523=DIRECTION('',(0.0,1.0,0.0));
#524=DIRECTION('',(-0.400818834019697,0.0,-0.916157334902194));
#525=ORIENTED_EDGE('',*,*,#895,.F.);
#526=ORIENTED_EDGE('',*,*,#825,.F.);
#527=ORIENTED_EDGE('',*,*,#894,.T.);
#528=ORIENTED_EDGE('',*,*,#884,.F.);
#529=CARTESIAN_POINT('',(-0.3,-2.0,0.675));
#530=DIRECTION('',(1.0,0.0,0.0));
#531=DIRECTION('',(0.0,1.0,0.0));
#532=ORIENTED_EDGE('',*,*,#896,.T.);
#533=ORIENTED_EDGE('',*,*,#826,.T.);
#534=ORIENTED_EDGE('',*,*,#895,.T.);
#535=ORIENTED_EDGE('',*,*,#883,.F.);
#536=CARTESIAN_POINT('',(-0.2,-1.614441447396,0.9095984425214));
#537=DIRECTION('',(0.0,1.0,-0.0));
#538=DIRECTION('',(-1.0,0.0,0.0));
#539=ORIENTED_EDGE('',*,*,#897,.F.);
#540=ORIENTED_EDGE('',*,*,#827,.F.);
#541=ORIENTED_EDGE('',*,*,#896,.F.);
#542=ORIENTED_EDGE('',*,*,#882,.F.);
#543=CARTESIAN_POINT('',(-0.3,-2.0,0.975));
#544=DIRECTION('',(0.400818834019697,0.0,-0.916157334902194));
#545=DIRECTION('',(0.0,-1.0,0.0));
#546=ORIENTED_EDGE('',*,*,#898,.F.);
#547=ORIENTED_EDGE('',*,*,#828,.T.);
#548=ORIENTED_EDGE('',*,*,#897,.T.);
#549=ORIENTED_EDGE('',*,*,#881,.F.);
#550=CARTESIAN_POINT('',(0.0,-2.006505432234,1.215401557479));
#551=DIRECTION('',(0.0,-1.0,0.0));
#552=DIRECTION('',(0.400818834019697,0.0,-0.916157334902194));
#553=ORIENTED_EDGE('',*,*,#899,.F.);
#554=ORIENTED_EDGE('',*,*,#829,.F.);
#555=ORIENTED_EDGE('',*,*,#898,.T.);
#556=ORIENTED_EDGE('',*,*,#880,.F.);
#557=CARTESIAN_POINT('',(0.1,-2.0,1.15));
#558=DIRECTION('',(1.0,0.0,0.0));
#559=DIRECTION('',(0.0,1.0,0.0));
#560=ORIENTED_EDGE('',*,*,#852,.F.);
#561=ORIENTED_EDGE('',*,*,#830,.T.);
#562=ORIENTED_EDGE('',*,*,#899,.T.);
#563=ORIENTED_EDGE('',*,*,#879,.F.);
#564=CARTESIAN_POINT('',(0.2,-1.614441447396,1.55));
#565=DIRECTION('',(0.0,1.0,-0.0));
#566=DIRECTION('',(-1.0,0.0,0.0));
#567=ORIENTED_EDGE('',*,*,#869,.F.);
#568=ORIENTED_EDGE('',*,*,#876,.F.);
#569=ORIENTED_EDGE('',*,*,#815,.T.);
#570=ORIENTED_EDGE('',*,*,#861,.T.);
#571=CARTESIAN_POINT('',(0.87,-0.76,0.0));
#572=DIRECTION('',(-0.0,0.0,-1.0));
#573=DIRECTION('',(-1.0,0.0,0.0));
#574=ORIENTED_EDGE('',*,*,#872,.T.);
#575=ORIENTED_EDGE('',*,*,#900,.T.);
#576=ORIENTED_EDGE('',*,*,#803,.F.);
#577=ORIENTED_EDGE('',*,*,#839,.F.);
#578=CARTESIAN_POINT('',(0.87,-0.76,1.65));
#579=DIRECTION('',(0.0,0.0,-1.0));
#580=DIRECTION('',(1.0,0.0,0.0));
#581=ORIENTED_EDGE('',*,*,#871,.T.);
#582=ORIENTED_EDGE('',*,*,#901,.T.);
#583=ORIENTED_EDGE('',*,*,#857,.F.);
#584=ORIENTED_EDGE('',*,*,#843,.T.);
#585=ORIENTED_EDGE('',*,*,#902,.T.);
#586=ORIENTED_EDGE('',*,*,#903,.T.);
#587=ORIENTED_EDGE('',*,*,#904,.F.);
#588=ORIENTED_EDGE('',*,*,#905,.T.);
#589=ORIENTED_EDGE('',*,*,#804,.F.);
#590=ORIENTED_EDGE('',*,*,#900,.F.);
#591=CARTESIAN_POINT('',(0.87,-0.38,1.65));
#592=DIRECTION('',(-0.0,1.0,0.0));
#593=DIRECTION('',(1.0,0.0,0.0));
#594=ORIENTED_EDGE('',*,*,#906,.T.);
#595=ORIENTED_EDGE('',*,*,#907,.T.);
#596=ORIENTED_EDGE('',*,*,#805,.F.);
#597=ORIENTED_EDGE('',*,*,#905,.F.);
#598=CARTESIAN_POINT('',(-0.86,-0.76,1.65));
#599=DIRECTION('',(0.0,0.0,-1.0));
#600=DIRECTION('',(1.0,0.0,0.0));
#601=ORIENTED_EDGE('',*,*,#908,.T.);
#602=ORIENTED_EDGE('',*,*,#909,.F.);
#603=ORIENTED_EDGE('',*,*,#906,.F.);
#604=ORIENTED_EDGE('',*,*,#904,.T.);
#605=ORIENTED_EDGE('',*,*,#910,.F.);
#606=ORIENTED_EDGE('',*,*,#863,.F.);
#607=ORIENTED_EDGE('',*,*,#911,.T.);
#608=ORIENTED_EDGE('',*,*,#912,.T.);
#609=CARTESIAN_POINT('',(-0.6,0.0,1.45));
#610=DIRECTION('',(0.0,0.0,-1.0));
#611=DIRECTION('',(0.0,-1.0,0.0));
#612=ORIENTED_EDGE('',*,*,#913,.F.);
#613=ORIENTED_EDGE('',*,*,#914,.F.);
#614=ORIENTED_EDGE('',*,*,#908,.F.);
#615=ORIENTED_EDGE('',*,*,#915,.F.);
#616=CARTESIAN_POINT('',(-1.626700994307,-0.9,1.55));
#617=DIRECTION('',(-1.0,0.0,-0.0));
#618=DIRECTION('',(0.0,0.0,-1.0));
#619=ORIENTED_EDGE('',*,*,#844,.F.);
#620=ORIENTED_EDGE('',*,*,#916,.F.);
#621=ORIENTED_EDGE('',*,*,#913,.T.);
#622=ORIENTED_EDGE('',*,*,#917,.F.);
#623=CARTESIAN_POINT('',(1.636700994307,-1.1,1.55));
#624=DIRECTION('',(1.0,-0.0,0.0));
#625=DIRECTION('',(0.0,1.0,0.0));
#626=ORIENTED_EDGE('',*,*,#917,.T.);
#627=ORIENTED_EDGE('',*,*,#915,.T.);
#628=ORIENTED_EDGE('',*,*,#912,.F.);
#629=ORIENTED_EDGE('',*,*,#918,.F.);
#630=ORIENTED_EDGE('',*,*,#812,.T.);
#631=ORIENTED_EDGE('',*,*,#919,.T.);
#632=ORIENTED_EDGE('',*,*,#845,.F.);
#633=CARTESIAN_POINT('',(-1.62,-0.76,0.0));
#634=DIRECTION('',(-1.0,0.0,0.0));
#635=DIRECTION('',(0.0,0.0,1.0));
#636=ORIENTED_EDGE('',*,*,#811,.T.);
#637=ORIENTED_EDGE('',*,*,#920,.T.);
#638=ORIENTED_EDGE('',*,*,#846,.F.);
#639=ORIENTED_EDGE('',*,*,#919,.F.);
#640=CARTESIAN_POINT('',(-0.86,-1.24,0.0));
#641=DIRECTION('',(-0.0,0.0,-1.0));
#642=DIRECTION('',(-1.0,0.0,0.0));
#643=ORIENTED_EDGE('',*,*,#921,.T.);
#644=ORIENTED_EDGE('',*,*,#847,.F.);
#645=ORIENTED_EDGE('',*,*,#920,.F.);
#646=ORIENTED_EDGE('',*,*,#810,.T.);
#647=ORIENTED_EDGE('',*,*,#922,.T.);
#648=ORIENTED_EDGE('',*,*,#923,.T.);
#649=ORIENTED_EDGE('',*,*,#924,.T.);
#650=ORIENTED_EDGE('',*,*,#925,.F.);
#651=ORIENTED_EDGE('',*,*,#926,.T.);
#652=ORIENTED_EDGE('',*,*,#927,.F.);
#653=ORIENTED_EDGE('',*,*,#928,.T.);
#654=ORIENTED_EDGE('',*,*,#929,.F.);
#655=ORIENTED_EDGE('',*,*,#930,.T.);
#656=ORIENTED_EDGE('',*,*,#931,.F.);
#657=CARTESIAN_POINT('',(-0.86,-2.0,0.0));
#658=DIRECTION('',(0.0,-1.0,0.0));
#659=DIRECTION('',(0.0,0.0,-1.0));
#660=ORIENTED_EDGE('',*,*,#848,.F.);
#661=ORIENTED_EDGE('',*,*,#921,.F.);
#662=ORIENTED_EDGE('',*,*,#932,.T.);
#663=ORIENTED_EDGE('',*,*,#933,.F.);
#664=CARTESIAN_POINT('',(-0.2,-2.006505432234,1.55));
#665=DIRECTION('',(0.0,-1.0,0.0));
#666=DIRECTION('',(1.0,0.0,0.0));
#667=ORIENTED_EDGE('',*,*,#933,.T.);
#668=ORIENTED_EDGE('',*,*,#934,.T.);
#669=ORIENTED_EDGE('',*,*,#935,.T.);
#670=ORIENTED_EDGE('',*,*,#936,.T.);
#671=ORIENTED_EDGE('',*,*,#937,.T.);
#672=ORIENTED_EDGE('',*,*,#938,.T.);
#673=ORIENTED_EDGE('',*,*,#939,.T.);
#674=ORIENTED_EDGE('',*,*,#940,.T.);
#675=ORIENTED_EDGE('',*,*,#941,.T.);
#676=ORIENTED_EDGE('',*,*,#942,.F.);
#677=ORIENTED_EDGE('',*,*,#943,.T.);
#678=ORIENTED_EDGE('',*,*,#808,.F.);
#679=ORIENTED_EDGE('',*,*,#944,.F.);
#680=ORIENTED_EDGE('',*,*,#849,.T.);
#681=CARTESIAN_POINT('',(-0.86,-1.62,1.65));
#682=DIRECTION('',(0.0,-1.0,0.0));
#683=DIRECTION('',(0.0,0.0,-1.0));
#684=ORIENTED_EDGE('',*,*,#807,.F.);
#685=ORIENTED_EDGE('',*,*,#945,.F.);
#686=ORIENTED_EDGE('',*,*,#850,.T.);
#687=ORIENTED_EDGE('',*,*,#944,.T.);
#688=CARTESIAN_POINT('',(-0.86,-1.24,1.65));
#689=DIRECTION('',(0.0,0.0,-1.0));
#690=DIRECTION('',(1.0,0.0,0.0));
#691=ORIENTED_EDGE('',*,*,#916,.T.);
#692=ORIENTED_EDGE('',*,*,#851,.T.);
#693=ORIENTED_EDGE('',*,*,#945,.T.);
#694=ORIENTED_EDGE('',*,*,#806,.F.);
#695=ORIENTED_EDGE('',*,*,#907,.F.);
#696=ORIENTED_EDGE('',*,*,#909,.T.);
#697=ORIENTED_EDGE('',*,*,#914,.T.);
#698=CARTESIAN_POINT('',(-1.24,-0.76,1.65));
#699=DIRECTION('',(-1.0,0.0,0.0));
#700=DIRECTION('',(0.0,0.0,1.0));
#701=ORIENTED_EDGE('',*,*,#809,.F.);
#702=ORIENTED_EDGE('',*,*,#943,.F.);
#703=ORIENTED_EDGE('',*,*,#946,.T.);
#704=ORIENTED_EDGE('',*,*,#922,.F.);
#705=CARTESIAN_POINT('',(-0.2,-1.614441447396,0.1));
#706=DIRECTION('',(0.0,1.0,-0.0));
#707=DIRECTION('',(1.0,0.0,0.0));
#708=ORIENTED_EDGE('',*,*,#947,.T.);
#709=ORIENTED_EDGE('',*,*,#923,.F.);
#710=ORIENTED_EDGE('',*,*,#946,.F.);
#711=ORIENTED_EDGE('',*,*,#942,.T.);
#712=CARTESIAN_POINT('',(-0.1,-2.0,0.5));
#713=DIRECTION('',(-1.0,0.0,0.0));
#714=DIRECTION('',(0.0,0.0,1.0));
#715=ORIENTED_EDGE('',*,*,#947,.F.);
#716=ORIENTED_EDGE('',*,*,#941,.F.);
#717=ORIENTED_EDGE('',*,*,#948,.T.);
#718=ORIENTED_EDGE('',*,*,#924,.F.);
#719=CARTESIAN_POINT('',(-0.2,-1.614441447396,0.4345984425214));
#720=DIRECTION('',(0.0,1.0,-0.0));
#721=DIRECTION('',(0.400818834019697,0.0,0.916157334902194));
#722=ORIENTED_EDGE('',*,*,#948,.F.);
#723=ORIENTED_EDGE('',*,*,#940,.F.);
#724=ORIENTED_EDGE('',*,*,#949,.F.);
#725=ORIENTED_EDGE('',*,*,#925,.T.);
#726=CARTESIAN_POINT('',(-0.5,-2.0,0.675));
#727=DIRECTION('',(-0.400818834019697,0.0,-0.916157334902194));
#728=DIRECTION('',(-0.916157334902194,0.0,0.400818834019697));
#729=ORIENTED_EDGE('',*,*,#949,.T.);
#730=ORIENTED_EDGE('',*,*,#939,.F.);
#731=ORIENTED_EDGE('',*,*,#950,.F.);
#732=ORIENTED_EDGE('',*,*,#926,.F.);
#733=CARTESIAN_POINT('',(-0.4,-2.006505432234,0.7404015574786));
#734=DIRECTION('',(-0.0,-1.0,0.0));
#735=DIRECTION('',(-1.0,0.0,0.0));
#736=ORIENTED_EDGE('',*,*,#951,.F.);
#737=ORIENTED_EDGE('',*,*,#927,.T.);
#738=ORIENTED_EDGE('',*,*,#950,.T.);
#739=ORIENTED_EDGE('',*,*,#938,.F.);
#740=CARTESIAN_POINT('',(-0.5,-2.0,0.975));
#741=DIRECTION('',(-1.0,0.0,0.0));
#742=DIRECTION('',(0.0,0.0,1.0));
#743=ORIENTED_EDGE('',*,*,#951,.T.);
#744=ORIENTED_EDGE('',*,*,#937,.F.);
#745=ORIENTED_EDGE('',*,*,#952,.F.);
#746=ORIENTED_EDGE('',*,*,#928,.F.);
#747=CARTESIAN_POINT('',(-0.4,-2.006505432234,0.9095984425214));
#748=DIRECTION('',(-0.0,-1.0,0.0));
#749=DIRECTION('',(-0.400818834019697,0.0,0.916157334902194));
#750=ORIENTED_EDGE('',*,*,#953,.T.);
#751=ORIENTED_EDGE('',*,*,#929,.T.);
#752=ORIENTED_EDGE('',*,*,#952,.T.);
#753=ORIENTED_EDGE('',*,*,#936,.F.);
#754=CARTESIAN_POINT('',(-0.1,-2.0,1.15));
#755=DIRECTION('',(-0.400818834019697,0.0,0.916157334902194));
#756=DIRECTION('',(0.0,1.0,0.0));
#757=ORIENTED_EDGE('',*,*,#953,.F.);
#758=ORIENTED_EDGE('',*,*,#935,.F.);
#759=ORIENTED_EDGE('',*,*,#954,.T.);
#760=ORIENTED_EDGE('',*,*,#930,.F.);
#761=CARTESIAN_POINT('',(-0.2,-1.614441447396,1.215401557479));
#762=DIRECTION('',(0.0,1.0,-0.0));
#763=DIRECTION('',(1.0,0.0,0.0));
#764=ORIENTED_EDGE('',*,*,#932,.F.);
#765=ORIENTED_EDGE('',*,*,#931,.T.);
#766=ORIENTED_EDGE('',*,*,#954,.F.);
#767=ORIENTED_EDGE('',*,*,#934,.F.);
#768=CARTESIAN_POINT('',(-0.1,-2.0,1.65));
#769=DIRECTION('',(-1.0,0.0,0.0));
#770=DIRECTION('',(0.0,0.0,1.0));
#771=ORIENTED_EDGE('',*,*,#911,.F.);
#772=ORIENTED_EDGE('',*,*,#862,.F.);
#773=ORIENTED_EDGE('',*,*,#813,.T.);
#774=ORIENTED_EDGE('',*,*,#918,.T.);
#775=CARTESIAN_POINT('',(-0.86,-0.76,0.0));
#776=DIRECTION('',(-0.0,0.0,-1.0));
#777=DIRECTION('',(-1.0,0.0,0.0));
#778=ORIENTED_EDGE('',*,*,#864,.T.);
#779=ORIENTED_EDGE('',*,*,#910,.T.);
#780=ORIENTED_EDGE('',*,*,#903,.F.);
#781=ORIENTED_EDGE('',*,*,#955,.F.);
#782=CARTESIAN_POINT('',(-0.6,0.0,1.55));
#783=DIRECTION('',(0.0,-1.0,0.0));
#784=DIRECTION('',(1.0,0.0,0.0));
#785=ORIENTED_EDGE('',*,*,#842,.F.);
#786=ORIENTED_EDGE('',*,*,#865,.T.);
#787=ORIENTED_EDGE('',*,*,#955,.T.);
#788=ORIENTED_EDGE('',*,*,#902,.F.);
#789=CARTESIAN_POINT('',(-0.5,0.0,1.65));
#790=DIRECTION('',(1.0,0.0,0.0));
#791=DIRECTION('',(0.0,1.0,0.0));
#792=ORIENTED_EDGE('',*,*,#866,.T.);
#793=ORIENTED_EDGE('',*,*,#858,.T.);
#794=ORIENTED_EDGE('',*,*,#901,.F.);
#795=ORIENTED_EDGE('',*,*,#870,.F.);
#796=CARTESIAN_POINT('',(0.6,0.0,1.55));
#797=DIRECTION('',(0.0,-1.0,0.0));
#798=DIRECTION('',(1.0,0.0,0.0));
#799=COLOUR_RGB('',0.658823549747467,0.658823549747467,0.658823549747467);
#800=EDGE_CURVE('',#956,#957,#958,.T.);
#801=EDGE_CURVE('',#957,#959,#960,.T.);
#802=EDGE_CURVE('',#959,#961,#962,.T.);
#803=EDGE_CURVE('',#961,#963,#964,.T.);
#804=EDGE_CURVE('',#963,#965,#966,.T.);
#805=EDGE_CURVE('',#965,#967,#968,.T.);
#806=EDGE_CURVE('',#967,#969,#970,.T.);
#807=EDGE_CURVE('',#969,#971,#972,.T.);
#808=EDGE_CURVE('',#971,#973,#974,.T.);
#809=EDGE_CURVE('',#973,#975,#976,.T.);
#810=EDGE_CURVE('',#977,#975,#978,.T.);
#811=EDGE_CURVE('',#979,#977,#980,.T.);
#812=EDGE_CURVE('',#981,#979,#982,.T.);
#813=EDGE_CURVE('',#983,#981,#984,.T.);
#814=EDGE_CURVE('',#985,#983,#986,.T.);
#815=EDGE_CURVE('',#987,#985,#988,.T.);
#816=EDGE_CURVE('',#987,#989,#990,.T.);
#817=EDGE_CURVE('',#989,#991,#992,.T.);
#818=EDGE_CURVE('',#991,#993,#994,.T.);
#819=EDGE_CURVE('',#956,#993,#995,.T.);
#820=EDGE_CURVE('',#956,#996,#997,.T.);
#821=EDGE_CURVE('',#996,#998,#999,.T.);
#822=EDGE_CURVE('',#1000,#998,#1001,.T.);
#823=EDGE_CURVE('',#1000,#1002,#1003,.T.);
#824=EDGE_CURVE('',#1004,#1002,#1005,.T.);
#825=EDGE_CURVE('',#1004,#1006,#1007,.T.);
#826=EDGE_CURVE('',#1008,#1006,#1009,.T.);
#827=EDGE_CURVE('',#1008,#1010,#1011,.T.);
#828=EDGE_CURVE('',#1012,#1010,#1013,.T.);
#829=EDGE_CURVE('',#1012,#1014,#1015,.T.);
#830=EDGE_CURVE('',#1016,#1014,#1017,.T.);
#831=EDGE_CURVE('',#1018,#1016,#1019,.T.);
#832=EDGE_CURVE('',#1018,#957,#1020,.T.);
#833=EDGE_CURVE('',#1018,#1021,#1022,.T.);
#834=EDGE_CURVE('',#1021,#959,#1023,.T.);
#835=EDGE_CURVE('',#1024,#1021,#1025,.T.);
#836=EDGE_CURVE('',#1024,#1026,#1027,.T.);
#837=EDGE_CURVE('',#1026,#1028,#1029,.T.);
#838=EDGE_CURVE('',#1030,#1028,#1031,.T.);
#839=EDGE_CURVE('',#1030,#961,#1032,.T.);
#840=EDGE_CURVE('',#1033,#1034,#1035,.T.);
#841=EDGE_CURVE('',#1033,#1036,#1037,.T.);
#842=EDGE_CURVE('',#1036,#1038,#1039,.T.);
#843=EDGE_CURVE('',#1034,#1038,#1040,.T.);
#844=EDGE_CURVE('',#1041,#1042,#1043,.T.);
#845=EDGE_CURVE('',#1042,#1044,#1045,.T.);
#846=EDGE_CURVE('',#1044,#1046,#1047,.T.);
#847=EDGE_CURVE('',#1046,#1048,#1049,.T.);
#848=EDGE_CURVE('',#1048,#1050,#1051,.T.);
#849=EDGE_CURVE('',#1052,#1050,#1053,.T.);
#850=EDGE_CURVE('',#1054,#1052,#1055,.T.);
#851=EDGE_CURVE('',#1041,#1054,#1056,.T.);
#852=EDGE_CURVE('',#1016,#1057,#1058,.T.);
#853=EDGE_CURVE('',#1057,#1059,#1060,.T.);
#854=EDGE_CURVE('',#1061,#1059,#1062,.T.);
#855=EDGE_CURVE('',#1061,#1063,#1064,.T.);
#856=EDGE_CURVE('',#1063,#1024,#1065,.T.);
#857=EDGE_CURVE('',#1034,#1066,#1067,.T.);
#858=EDGE_CURVE('',#1068,#1066,#1069,.T.);
#859=EDGE_CURVE('',#1033,#1068,#1070,.T.);
#860=EDGE_CURVE('',#1071,#1072,#1073,.T.);
#861=EDGE_CURVE('',#985,#1071,#1074,.T.);
#862=EDGE_CURVE('',#983,#1075,#1076,.T.);
#863=EDGE_CURVE('',#1075,#1077,#1078,.T.);
#864=EDGE_CURVE('',#1079,#1077,#1080,.T.);
#865=EDGE_CURVE('',#1036,#1079,#1081,.T.);
#866=EDGE_CURVE('',#1072,#1068,#1082,.T.);
#867=EDGE_CURVE('',#1028,#1083,#1084,.T.);
#868=EDGE_CURVE('',#1085,#1083,#1086,.T.);
#869=EDGE_CURVE('',#1085,#1071,#1087,.T.);
#870=EDGE_CURVE('',#1072,#1088,#1089,.T.);
#871=EDGE_CURVE('',#1090,#1088,#1091,.T.);
#872=EDGE_CURVE('',#1030,#1090,#1092,.T.);
#873=EDGE_CURVE('',#1093,#1026,#1094,.T.);
#874=EDGE_CURVE('',#1083,#1093,#1095,.T.);
#875=EDGE_CURVE('',#1093,#1063,#1096,.T.);
#876=EDGE_CURVE('',#987,#1085,#1097,.T.);
#877=EDGE_CURVE('',#1061,#989,#1098,.T.);
#878=EDGE_CURVE('',#1059,#991,#1099,.T.);
#879=EDGE_CURVE('',#1057,#1100,#1101,.T.);
#880=EDGE_CURVE('',#1100,#1102,#1103,.T.);
#881=EDGE_CURVE('',#1102,#1104,#1105,.T.);
#882=EDGE_CURVE('',#1104,#1106,#1107,.T.);
#883=EDGE_CURVE('',#1106,#1108,#1109,.T.);
#884=EDGE_CURVE('',#1108,#1110,#1111,.T.);
#885=EDGE_CURVE('',#1110,#1112,#1113,.T.);
#886=EDGE_CURVE('',#1112,#1114,#1115,.T.);
#887=EDGE_CURVE('',#1114,#1116,#1117,.T.);
#888=EDGE_CURVE('',#1116,#1118,#1119,.T.);
#889=EDGE_CURVE('',#1118,#993,#1120,.T.);
#890=EDGE_CURVE('',#996,#1118,#1121,.T.);
#891=EDGE_CURVE('',#998,#1116,#1122,.T.);
#892=EDGE_CURVE('',#1000,#1114,#1123,.T.);
#893=EDGE_CURVE('',#1002,#1112,#1124,.T.);
#894=EDGE_CURVE('',#1004,#1110,#1125,.T.);
#895=EDGE_CURVE('',#1006,#1108,#1126,.T.);
#896=EDGE_CURVE('',#1106,#1008,#1127,.T.);
#897=EDGE_CURVE('',#1010,#1104,#1128,.T.);
#898=EDGE_CURVE('',#1012,#1102,#1129,.T.);
#899=EDGE_CURVE('',#1014,#1100,#1130,.T.);
#900=EDGE_CURVE('',#1090,#963,#1131,.T.);
#901=EDGE_CURVE('',#1088,#1066,#1132,.T.);
#902=EDGE_CURVE('',#1038,#1133,#1134,.T.);
#903=EDGE_CURVE('',#1133,#1135,#1136,.T.);
#904=EDGE_CURVE('',#1137,#1135,#1138,.T.);
#905=EDGE_CURVE('',#1137,#965,#1139,.T.);
#906=EDGE_CURVE('',#1137,#1140,#1141,.T.);
#907=EDGE_CURVE('',#1140,#967,#1142,.T.);
#908=EDGE_CURVE('',#1143,#1144,#1145,.T.);
#909=EDGE_CURVE('',#1140,#1144,#1146,.T.);
#910=EDGE_CURVE('',#1077,#1135,#1147,.T.);
#911=EDGE_CURVE('',#1075,#1148,#1149,.T.);
#912=EDGE_CURVE('',#1148,#1143,#1150,.T.);
#913=EDGE_CURVE('',#1151,#1152,#1153,.T.);
#914=EDGE_CURVE('',#1144,#1151,#1154,.T.);
#915=EDGE_CURVE('',#1152,#1143,#1155,.T.);
#916=EDGE_CURVE('',#1151,#1041,#1156,.T.);
#917=EDGE_CURVE('',#1042,#1152,#1157,.T.);
#918=EDGE_CURVE('',#981,#1148,#1158,.T.);
#919=EDGE_CURVE('',#979,#1044,#1159,.T.);
#920=EDGE_CURVE('',#977,#1046,#1160,.T.);
#921=EDGE_CURVE('',#1161,#1048,#1162,.T.);
#922=EDGE_CURVE('',#975,#1163,#1164,.T.);
#923=EDGE_CURVE('',#1163,#1165,#1166,.T.);
#924=EDGE_CURVE('',#1165,#1167,#1168,.T.);
#925=EDGE_CURVE('',#1169,#1167,#1170,.T.);
#926=EDGE_CURVE('',#1169,#1171,#1172,.T.);
#927=EDGE_CURVE('',#1173,#1171,#1174,.T.);
#928=EDGE_CURVE('',#1173,#1175,#1176,.T.);
#929=EDGE_CURVE('',#1177,#1175,#1178,.T.);
#930=EDGE_CURVE('',#1177,#1179,#1180,.T.);
#931=EDGE_CURVE('',#1161,#1179,#1181,.T.);
#932=EDGE_CURVE('',#1161,#1182,#1183,.T.);
#933=EDGE_CURVE('',#1050,#1182,#1184,.T.);
#934=EDGE_CURVE('',#1182,#1185,#1186,.T.);
#935=EDGE_CURVE('',#1185,#1187,#1188,.T.);
#936=EDGE_CURVE('',#1187,#1189,#1190,.T.);
#937=EDGE_CURVE('',#1189,#1191,#1192,.T.);
#938=EDGE_CURVE('',#1191,#1193,#1194,.T.);
#939=EDGE_CURVE('',#1193,#1195,#1196,.T.);
#940=EDGE_CURVE('',#1195,#1197,#1198,.T.);
#941=EDGE_CURVE('',#1197,#1199,#1200,.T.);
#942=EDGE_CURVE('',#1201,#1199,#1202,.T.);
#943=EDGE_CURVE('',#1201,#973,#1203,.T.);
#944=EDGE_CURVE('',#1052,#971,#1204,.T.);
#945=EDGE_CURVE('',#1054,#969,#1205,.T.);
#946=EDGE_CURVE('',#1201,#1163,#1206,.T.);
#947=EDGE_CURVE('',#1199,#1165,#1207,.T.);
#948=EDGE_CURVE('',#1197,#1167,#1208,.T.);
#949=EDGE_CURVE('',#1169,#1195,#1209,.T.);
#950=EDGE_CURVE('',#1171,#1193,#1210,.T.);
#951=EDGE_CURVE('',#1173,#1191,#1211,.T.);
#952=EDGE_CURVE('',#1175,#1189,#1212,.T.);
#953=EDGE_CURVE('',#1187,#1177,#1213,.T.);
#954=EDGE_CURVE('',#1185,#1179,#1214,.T.);
#955=EDGE_CURVE('',#1079,#1133,#1215,.T.);
#956=VERTEX_POINT('',#1216);
#957=VERTEX_POINT('',#1217);
#958=LINE('',#1218,#1219);
#959=VERTEX_POINT('',#1220);
#960=CIRCLE('',#1221,0.38);
#961=VERTEX_POINT('',#1222);
#962=LINE('',#1223,#1224);
#963=VERTEX_POINT('',#1225);
#964=CIRCLE('',#1226,0.38);
#965=VERTEX_POINT('',#1227);
#966=LINE('',#1228,#1229);
#967=VERTEX_POINT('',#1230);
#968=CIRCLE('',#1231,0.38);
#969=VERTEX_POINT('',#1232);
#970=LINE('',#1233,#1234);
#971=VERTEX_POINT('',#1235);
#972=CIRCLE('',#1236,0.38);
#973=VERTEX_POINT('',#1237);
#974=LINE('',#1238,#1239);
#975=VERTEX_POINT('',#1240);
#976=LINE('',#1241,#1242);
#977=VERTEX_POINT('',#1243);
#978=LINE('',#1244,#1245);
#979=VERTEX_POINT('',#1246);
#980=CIRCLE('',#1247,0.76);
#981=VERTEX_POINT('',#1248);
#982=LINE('',#1249,#1250);
#983=VERTEX_POINT('',#1251);
#984=CIRCLE('',#1252,0.76);
#985=VERTEX_POINT('',#1253);
#986=LINE('',#1254,#1255);
#987=VERTEX_POINT('',#1256);
#988=CIRCLE('',#1257,0.76);
#989=VERTEX_POINT('',#1258);
#990=LINE('',#1259,#1260);
#991=VERTEX_POINT('',#1261);
#992=CIRCLE('',#1262,0.76);
#993=VERTEX_POINT('',#1263);
#994=LINE('',#1264,#1265);
#995=LINE('',#1266,#1267);
#996=VERTEX_POINT('',#1268);
#997=CIRCLE('',#1269,0.1);
#998=VERTEX_POINT('',#1270);
#999=LINE('',#1271,#1272);
#1000=VERTEX_POINT('',#1273);
#1001=CIRCLE('',#1274,0.1);
#1002=VERTEX_POINT('',#1275);
#1003=LINE('',#1276,#1277);
#1004=VERTEX_POINT('',#1278);
#1005=CIRCLE('',#1279,0.1);
#1006=VERTEX_POINT('',#1280);
#1007=LINE('',#1281,#1282);
#1008=VERTEX_POINT('',#1283);
#1009=CIRCLE('',#1284,0.1);
#1010=VERTEX_POINT('',#1285);
#1011=LINE('',#1286,#1287);
#1012=VERTEX_POINT('',#1288);
#1013=CIRCLE('',#1289,0.1);
#1014=VERTEX_POINT('',#1290);
#1015=LINE('',#1291,#1292);
#1016=VERTEX_POINT('',#1293);
#1017=CIRCLE('',#1294,0.1);
#1018=VERTEX_POINT('',#1295);
#1019=LINE('',#1296,#1297);
#1020=LINE('',#1298,#1299);
#1021=VERTEX_POINT('',#1300);
#1022=CIRCLE('',#1301,0.38);
#1023=LINE('',#1302,#1303);
#1024=VERTEX_POINT('',#1304);
#1025=LINE('',#1305,#1306);
#1026=VERTEX_POINT('',#1307);
#1027=CIRCLE('',#1308,0.1);
#1028=VERTEX_POINT('',#1309);
#1029=CIRCLE('',#1310,0.1);
#1030=VERTEX_POINT('',#1311);
#1031=LINE('',#1312,#1313);
#1032=LINE('',#1314,#1315);
#1033=VERTEX_POINT('',#1316);
#1034=VERTEX_POINT('',#1317);
#1035=LINE('',#1318,#1319);
#1036=VERTEX_POINT('',#1320);
#1037=LINE('',#1321,#1322);
#1038=VERTEX_POINT('',#1323);
#1039=LINE('',#1324,#1325);
#1040=LINE('',#1326,#1327);
#1041=VERTEX_POINT('',#1328);
#1042=VERTEX_POINT('',#1329);
#1043=LINE('',#1330,#1331);
#1044=VERTEX_POINT('',#1332);
#1045=LINE('',#1333,#1334);
#1046=VERTEX_POINT('',#1335);
#1047=CIRCLE('',#1336,0.76);
#1048=VERTEX_POINT('',#1337);
#1049=LINE('',#1338,#1339);
#1050=VERTEX_POINT('',#1340);
#1051=LINE('',#1341,#1342);
#1052=VERTEX_POINT('',#1343);
#1053=LINE('',#1344,#1345);
#1054=VERTEX_POINT('',#1346);
#1055=CIRCLE('',#1347,0.38);
#1056=LINE('',#1348,#1349);
#1057=VERTEX_POINT('',#1350);
#1058=LINE('',#1351,#1352);
#1059=VERTEX_POINT('',#1353);
#1060=LINE('',#1354,#1355);
#1061=VERTEX_POINT('',#1356);
#1062=CIRCLE('',#1357,0.76);
#1063=VERTEX_POINT('',#1358);
#1064=LINE('',#1359,#1360);
#1065=LINE('',#1361,#1362);
#1066=VERTEX_POINT('',#1363);
#1067=LINE('',#1364,#1365);
#1068=VERTEX_POINT('',#1366);
#1069=LINE('',#1367,#1368);
#1070=LINE('',#1369,#1370);
#1071=VERTEX_POINT('',#1371);
#1072=VERTEX_POINT('',#1372);
#1073=LINE('',#1373,#1374);
#1074=LINE('',#1375,#1376);
#1075=VERTEX_POINT('',#1377);
#1076=LINE('',#1378,#1379);
#1077=VERTEX_POINT('',#1380);
#1078=LINE('',#1381,#1382);
#1079=VERTEX_POINT('',#1383);
#1080=CIRCLE('',#1384,0.1);
#1081=LINE('',#1385,#1386);
#1082=CIRCLE('',#1387,0.1);
#1083=VERTEX_POINT('',#1388);
#1084=LINE('',#1389,#1390);
#1085=VERTEX_POINT('',#1391);
#1086=LINE('',#1392,#1393);
#1087=CIRCLE('',#1394,0.76);
#1088=VERTEX_POINT('',#1395);
#1089=LINE('',#1396,#1397);
#1090=VERTEX_POINT('',#1398);
#1091=LINE('',#1399,#1400);
#1092=CIRCLE('',#1401,0.38);
#1093=VERTEX_POINT('',#1402);
#1094=LINE('',#1403,#1404);
#1095=CIRCLE('',#1405,0.1);
#1096=CIRCLE('',#1406,0.1);
#1097=LINE('',#1407,#1408);
#1098=LINE('',#1409,#1410);
#1099=LINE('',#1411,#1412);
#1100=VERTEX_POINT('',#1413);
#1101=CIRCLE('',#1414,0.1);
#1102=VERTEX_POINT('',#1415);
#1103=LINE('',#1416,#1417);
#1104=VERTEX_POINT('',#1418);
#1105=CIRCLE('',#1419,0.1);
#1106=VERTEX_POINT('',#1420);
#1107=LINE('',#1421,#1422);
#1108=VERTEX_POINT('',#1423);
#1109=CIRCLE('',#1424,0.1);
#1110=VERTEX_POINT('',#1425);
#1111=LINE('',#1426,#1427);
#1112=VERTEX_POINT('',#1428);
#1113=CIRCLE('',#1429,0.1);
#1114=VERTEX_POINT('',#1430);
#1115=LINE('',#1431,#1432);
#1116=VERTEX_POINT('',#1433);
#1117=CIRCLE('',#1434,0.1);
#1118=VERTEX_POINT('',#1435);
#1119=LINE('',#1436,#1437);
#1120=CIRCLE('',#1438,0.1);
#1121=LINE('',#1439,#1440);
#1122=LINE('',#1441,#1442);
#1123=LINE('',#1443,#1444);
#1124=LINE('',#1445,#1446);
#1125=LINE('',#1447,#1448);
#1126=LINE('',#1449,#1450);
#1127=LINE('',#1451,#1452);
#1128=LINE('',#1453,#1454);
#1129=LINE('',#1455,#1456);
#1130=LINE('',#1457,#1458);
#1131=LINE('',#1459,#1460);
#1132=CIRCLE('',#1461,0.1);
#1133=VERTEX_POINT('',#1462);
#1134=LINE('',#1463,#1464);
#1135=VERTEX_POINT('',#1465);
#1136=CIRCLE('',#1466,0.1);
#1137=VERTEX_POINT('',#1467);
#1138=LINE('',#1468,#1469);
#1139=LINE('',#1470,#1471);
#1140=VERTEX_POINT('',#1472);
#1141=CIRCLE('',#1473,0.38);
#1142=LINE('',#1474,#1475);
#1143=VERTEX_POINT('',#1476);
#1144=VERTEX_POINT('',#1477);
#1145=LINE('',#1478,#1479);
#1146=LINE('',#1480,#1481);
#1147=LINE('',#1482,#1483);
#1148=VERTEX_POINT('',#1484);
#1149=CIRCLE('',#1485,0.76);
#1150=LINE('',#1486,#1487);
#1151=VERTEX_POINT('',#1488);
#1152=VERTEX_POINT('',#1489);
#1153=LINE('',#1490,#1491);
#1154=CIRCLE('',#1492,0.1);
#1155=CIRCLE('',#1493,0.1);
#1156=CIRCLE('',#1494,0.1);
#1157=CIRCLE('',#1495,0.1);
#1158=LINE('',#1496,#1497);
#1159=LINE('',#1498,#1499);
#1160=LINE('',#1500,#1501);
#1161=VERTEX_POINT('',#1502);
#1162=CIRCLE('',#1503,0.1);
#1163=VERTEX_POINT('',#1504);
#1164=CIRCLE('',#1505,0.1);
#1165=VERTEX_POINT('',#1506);
#1166=LINE('',#1507,#1508);
#1167=VERTEX_POINT('',#1509);
#1168=CIRCLE('',#1510,0.1);
#1169=VERTEX_POINT('',#1511);
#1170=LINE('',#1512,#1513);
#1171=VERTEX_POINT('',#1514);
#1172=CIRCLE('',#1515,0.1);
#1173=VERTEX_POINT('',#1516);
#1174=LINE('',#1517,#1518);
#1175=VERTEX_POINT('',#1519);
#1176=CIRCLE('',#1520,0.1);
#1177=VERTEX_POINT('',#1521);
#1178=LINE('',#1522,#1523);
#1179=VERTEX_POINT('',#1524);
#1180=CIRCLE('',#1525,0.1);
#1181=LINE('',#1526,#1527);
#1182=VERTEX_POINT('',#1528);
#1183=LINE('',#1529,#1530);
#1184=CIRCLE('',#1531,0.1);
#1185=VERTEX_POINT('',#1532);
#1186=LINE('',#1533,#1534);
#1187=VERTEX_POINT('',#1535);
#1188=CIRCLE('',#1536,0.1);
#1189=VERTEX_POINT('',#1537);
#1190=LINE('',#1538,#1539);
#1191=VERTEX_POINT('',#1540);
#1192=CIRCLE('',#1541,0.1);
#1193=VERTEX_POINT('',#1542);
#1194=LINE('',#1543,#1544);
#1195=VERTEX_POINT('',#1545);
#1196=CIRCLE('',#1546,0.1);
#1197=VERTEX_POINT('',#1547);
#1198=LINE('',#1548,#1549);
#1199=VERTEX_POINT('',#1550);
#1200=CIRCLE('',#1551,0.1);
#1201=VERTEX_POINT('',#1552);
#1202=LINE('',#1553,#1554);
#1203=CIRCLE('',#1555,0.1);
#1204=LINE('',#1556,#1557);
#1205=LINE('',#1558,#1559);
#1206=LINE('',#1560,#1561);
#1207=LINE('',#1562,#1563);
#1208=LINE('',#1564,#1565);
#1209=LINE('',#1566,#1567);
#1210=LINE('',#1568,#1569);
#1211=LINE('',#1570,#1571);
#1212=LINE('',#1572,#1573);
#1213=LINE('',#1574,#1575);
#1214=LINE('',#1576,#1577);
#1215=LINE('',#1578,#1579);
#1216=CARTESIAN_POINT('',(0.2,-1.67,0.0));
#1217=CARTESIAN_POINT('',(0.87,-1.67,0.0));
#1218=CARTESIAN_POINT('',(0.2,-1.67,0.0));
#1219=VECTOR('',#1580,0.67);
#1220=CARTESIAN_POINT('',(1.25,-1.29,0.0));
#1221=AXIS2_PLACEMENT_3D('',#1581,#1582,#1583);
#1222=CARTESIAN_POINT('',(1.25,-0.76,0.0));
#1223=CARTESIAN_POINT('',(1.25,-1.29,0.0));
#1224=VECTOR('',#1584,0.53);
#1225=CARTESIAN_POINT('',(0.87,-0.38,0.0));
#1226=AXIS2_PLACEMENT_3D('',#1585,#1586,#1587);
#1227=CARTESIAN_POINT('',(-0.86,-0.38,0.0));
#1228=CARTESIAN_POINT('',(0.87,-0.38,0.0));
#1229=VECTOR('',#1588,1.73);
#1230=CARTESIAN_POINT('',(-1.24,-0.76,0.0));
#1231=AXIS2_PLACEMENT_3D('',#1589,#1590,#1591);
#1232=CARTESIAN_POINT('',(-1.24,-1.24,0.0));
#1233=CARTESIAN_POINT('',(-1.24,-0.76,0.0));
#1234=VECTOR('',#1592,0.48);
#1235=CARTESIAN_POINT('',(-0.86,-1.62,0.0));
#1236=AXIS2_PLACEMENT_3D('',#1593,#1594,#1595);
#1237=CARTESIAN_POINT('',(-0.2,-1.62,0.0));
#1238=CARTESIAN_POINT('',(-0.86,-1.62,0.0));
#1239=VECTOR('',#1596,0.66);
#1240=CARTESIAN_POINT('',(-0.2,-2.0,0.0));
#1241=CARTESIAN_POINT('',(-0.2,-1.62,0.0));
#1242=VECTOR('',#1597,0.38);
#1243=CARTESIAN_POINT('',(-0.86,-2.0,0.0));
#1244=CARTESIAN_POINT('',(-0.86,-2.0,0.0));
#1245=VECTOR('',#1598,0.66);
#1246=CARTESIAN_POINT('',(-1.62,-1.24,0.0));
#1247=AXIS2_PLACEMENT_3D('',#1599,#1600,#1601);
#1248=CARTESIAN_POINT('',(-1.62,-0.76,0.0));
#1249=CARTESIAN_POINT('',(-1.62,-0.76,0.0));
#1250=VECTOR('',#1602,0.48);
#1251=CARTESIAN_POINT('',(-0.86,0.0,0.0));
#1252=AXIS2_PLACEMENT_3D('',#1603,#1604,#1605);
#1253=CARTESIAN_POINT('',(0.87,0.0,0.0));
#1254=CARTESIAN_POINT('',(0.87,0.0,0.0));
#1255=VECTOR('',#1606,1.73);
#1256=CARTESIAN_POINT('',(1.63,-0.76,0.0));
#1257=AXIS2_PLACEMENT_3D('',#1607,#1608,#1609);
#1258=CARTESIAN_POINT('',(1.63,-1.29,0.0));
#1259=CARTESIAN_POINT('',(1.63,-0.76,0.0));
#1260=VECTOR('',#1610,0.53);
#1261=CARTESIAN_POINT('',(0.87,-2.05,0.0));
#1262=AXIS2_PLACEMENT_3D('',#1611,#1612,#1613);
#1263=CARTESIAN_POINT('',(0.2,-2.05,0.0));
#1264=CARTESIAN_POINT('',(0.87,-2.05,0.0));
#1265=VECTOR('',#1614,0.67);
#1266=CARTESIAN_POINT('',(0.2,-1.67,0.0));
#1267=VECTOR('',#1615,0.38);
#1268=CARTESIAN_POINT('',(0.1,-1.67,0.1));
#1269=AXIS2_PLACEMENT_3D('',#1616,#1617,#1618);
#1270=CARTESIAN_POINT('',(0.1,-1.67,0.4345984425214));
#1271=CARTESIAN_POINT('',(0.1,-1.67,0.1));
#1272=VECTOR('',#1619,0.3345984425214);
#1273=CARTESIAN_POINT('',(0.04008188340197,-1.67,0.5262141760116));
#1274=AXIS2_PLACEMENT_3D('',#1620,#1621,#1622);
#1275=CARTESIAN_POINT('',(-0.240081883402,-1.67,0.6487858239884));
#1276=CARTESIAN_POINT('',(0.04008188340197,-1.67,0.5262141760116));
#1277=VECTOR('',#1623,0.305803114957202);
#1278=CARTESIAN_POINT('',(-0.3,-1.67,0.7404015574786));
#1279=AXIS2_PLACEMENT_3D('',#1624,#1625,#1626);
#1280=CARTESIAN_POINT('',(-0.3,-1.67,0.9095984425214));
#1281=CARTESIAN_POINT('',(-0.3,-1.67,0.7404015574786));
#1282=VECTOR('',#1627,0.1691968850428);
#1283=CARTESIAN_POINT('',(-0.240081883402,-1.67,1.001214176012));
#1284=AXIS2_PLACEMENT_3D('',#1628,#1629,#1630);
#1285=CARTESIAN_POINT('',(0.04008188340197,-1.67,1.123785823988));
#1286=CARTESIAN_POINT('',(-0.240081883402,-1.67,1.001214176012));
#1287=VECTOR('',#1631,0.305803114957202);
#1288=CARTESIAN_POINT('',(0.1,-1.67,1.215401557479));
#1289=AXIS2_PLACEMENT_3D('',#1632,#1633,#1634);
#1290=CARTESIAN_POINT('',(0.1,-1.67,1.55));
#1291=CARTESIAN_POINT('',(0.1,-1.67,1.215401557479));
#1292=VECTOR('',#1635,0.3345984425214);
#1293=CARTESIAN_POINT('',(0.2,-1.67,1.65));
#1294=AXIS2_PLACEMENT_3D('',#1636,#1637,#1638);
#1295=CARTESIAN_POINT('',(0.87,-1.67,1.65));
#1296=CARTESIAN_POINT('',(0.87,-1.67,1.65));
#1297=VECTOR('',#1639,0.67);
#1298=CARTESIAN_POINT('',(0.87,-1.67,1.65));
#1299=VECTOR('',#1640,1.65);
#1300=CARTESIAN_POINT('',(1.25,-1.29,1.65));
#1301=AXIS2_PLACEMENT_3D('',#1641,#1642,#1643);
#1302=CARTESIAN_POINT('',(1.25,-1.29,1.65));
#1303=VECTOR('',#1644,1.65);
#1304=CARTESIAN_POINT('',(1.25,-1.1,1.65));
#1305=CARTESIAN_POINT('',(1.25,-1.1,1.65));
#1306=VECTOR('',#1645,0.19);
#1307=CARTESIAN_POINT('',(1.25,-1.0,1.55));
#1308=AXIS2_PLACEMENT_3D('',#1646,#1647,#1648);
#1309=CARTESIAN_POINT('',(1.25,-0.9,1.45));
#1310=AXIS2_PLACEMENT_3D('',#1649,#1650,#1651);
#1311=CARTESIAN_POINT('',(1.25,-0.76,1.45));
#1312=CARTESIAN_POINT('',(1.25,-0.76,1.45));
#1313=VECTOR('',#1652,0.14);
#1314=CARTESIAN_POINT('',(1.25,-0.76,1.45));
#1315=VECTOR('',#1653,1.45);
#1316=CARTESIAN_POINT('',(0.5,0.0,1.65));
#1317=CARTESIAN_POINT('',(0.5,-0.38,1.65));
#1318=CARTESIAN_POINT('',(0.5,0.0,1.65));
#1319=VECTOR('',#1654,0.38);
#1320=CARTESIAN_POINT('',(-0.5,0.0,1.65));
#1321=CARTESIAN_POINT('',(0.5,0.0,1.65));
#1322=VECTOR('',#1655,1.0);
#1323=CARTESIAN_POINT('',(-0.5,-0.38,1.65));
#1324=CARTESIAN_POINT('',(-0.5,0.0,1.65));
#1325=VECTOR('',#1656,0.38);
#1326=CARTESIAN_POINT('',(0.5,-0.38,1.65));
#1327=VECTOR('',#1657,1.0);
#1328=CARTESIAN_POINT('',(-1.24,-1.1,1.65));
#1329=CARTESIAN_POINT('',(-1.62,-1.1,1.65));
#1330=CARTESIAN_POINT('',(-1.24,-1.1,1.65));
#1331=VECTOR('',#1658,0.38);
#1332=CARTESIAN_POINT('',(-1.62,-1.24,1.65));
#1333=CARTESIAN_POINT('',(-1.62,-1.1,1.65));
#1334=VECTOR('',#1659,0.14);
#1335=CARTESIAN_POINT('',(-0.86,-2.0,1.65));
#1336=AXIS2_PLACEMENT_3D('',#1660,#1661,#1662);
#1337=CARTESIAN_POINT('',(-0.2,-2.0,1.65));
#1338=CARTESIAN_POINT('',(-0.86,-2.0,1.65));
#1339=VECTOR('',#1663,0.66);
#1340=CARTESIAN_POINT('',(-0.2,-1.62,1.65));
#1341=CARTESIAN_POINT('',(-0.2,-2.0,1.65));
#1342=VECTOR('',#1664,0.38);
#1343=CARTESIAN_POINT('',(-0.86,-1.62,1.65));
#1344=CARTESIAN_POINT('',(-0.86,-1.62,1.65));
#1345=VECTOR('',#1665,0.66);
#1346=CARTESIAN_POINT('',(-1.24,-1.24,1.65));
#1347=AXIS2_PLACEMENT_3D('',#1666,#1667,#1668);
#1348=CARTESIAN_POINT('',(-1.24,-1.1,1.65));
#1349=VECTOR('',#1669,0.14);
#1350=CARTESIAN_POINT('',(0.2,-2.05,1.65));
#1351=CARTESIAN_POINT('',(0.2,-1.67,1.65));
#1352=VECTOR('',#1670,0.38);
#1353=CARTESIAN_POINT('',(0.87,-2.05,1.65));
#1354=CARTESIAN_POINT('',(0.2,-2.05,1.65));
#1355=VECTOR('',#1671,0.67);
#1356=CARTESIAN_POINT('',(1.63,-1.29,1.65));
#1357=AXIS2_PLACEMENT_3D('',#1672,#1673,#1674);
#1358=CARTESIAN_POINT('',(1.63,-1.1,1.65));
#1359=CARTESIAN_POINT('',(1.63,-1.29,1.65));
#1360=VECTOR('',#1675,0.19);
#1361=CARTESIAN_POINT('',(1.63,-1.1,1.65));
#1362=VECTOR('',#1676,0.38);
#1363=CARTESIAN_POINT('',(0.5,-0.38,1.55));
#1364=CARTESIAN_POINT('',(0.5,-0.38,1.65));
#1365=VECTOR('',#1677,0.1);
#1366=CARTESIAN_POINT('',(0.5,0.0,1.55));
#1367=CARTESIAN_POINT('',(0.5,0.0,1.55));
#1368=VECTOR('',#1678,0.38);
#1369=CARTESIAN_POINT('',(0.5,0.0,1.65));
#1370=VECTOR('',#1679,0.1);
#1371=CARTESIAN_POINT('',(0.87,0.0,1.45));
#1372=CARTESIAN_POINT('',(0.6,0.0,1.45));
#1373=CARTESIAN_POINT('',(0.87,0.0,1.45));
#1374=VECTOR('',#1680,0.27);
#1375=CARTESIAN_POINT('',(0.87,0.0,0.0));
#1376=VECTOR('',#1681,1.45);
#1377=CARTESIAN_POINT('',(-0.86,0.0,1.45));
#1378=CARTESIAN_POINT('',(-0.86,0.0,0.0));
#1379=VECTOR('',#1682,1.45);
#1380=CARTESIAN_POINT('',(-0.6,0.0,1.45));
#1381=CARTESIAN_POINT('',(-0.86,0.0,1.45));
#1382=VECTOR('',#1683,0.26);
#1383=CARTESIAN_POINT('',(-0.5,0.0,1.55));
#1384=AXIS2_PLACEMENT_3D('',#1684,#1685,#1686);
#1385=CARTESIAN_POINT('',(-0.5,0.0,1.65));
#1386=VECTOR('',#1687,0.1);
#1387=AXIS2_PLACEMENT_3D('',#1688,#1689,#1690);
#1388=CARTESIAN_POINT('',(1.63,-0.9,1.45));
#1389=CARTESIAN_POINT('',(1.25,-0.9,1.45));
#1390=VECTOR('',#1691,0.38);
#1391=CARTESIAN_POINT('',(1.63,-0.76,1.45));
#1392=CARTESIAN_POINT('',(1.63,-0.76,1.45));
#1393=VECTOR('',#1692,0.14);
#1394=AXIS2_PLACEMENT_3D('',#1693,#1694,#1695);
#1395=CARTESIAN_POINT('',(0.6,-0.38,1.45));
#1396=CARTESIAN_POINT('',(0.6,0.0,1.45));
#1397=VECTOR('',#1696,0.38);
#1398=CARTESIAN_POINT('',(0.87,-0.38,1.45));
#1399=CARTESIAN_POINT('',(0.87,-0.38,1.45));
#1400=VECTOR('',#1697,0.27);
#1401=AXIS2_PLACEMENT_3D('',#1698,#1699,#1700);
#1402=CARTESIAN_POINT('',(1.63,-1.0,1.55));
#1403=CARTESIAN_POINT('',(1.63,-1.0,1.55));
#1404=VECTOR('',#1701,0.38);
#1405=AXIS2_PLACEMENT_3D('',#1702,#1703,#1704);
#1406=AXIS2_PLACEMENT_3D('',#1705,#1706,#1707);
#1407=CARTESIAN_POINT('',(1.63,-0.76,0.0));
#1408=VECTOR('',#1708,1.45);
#1409=CARTESIAN_POINT('',(1.63,-1.29,1.65));
#1410=VECTOR('',#1709,1.65);
#1411=CARTESIAN_POINT('',(0.87,-2.05,1.65));
#1412=VECTOR('',#1710,1.65);
#1413=CARTESIAN_POINT('',(0.1,-2.05,1.55));
#1414=AXIS2_PLACEMENT_3D('',#1711,#1712,#1713);
#1415=CARTESIAN_POINT('',(0.1,-2.05,1.215401557479));
#1416=CARTESIAN_POINT('',(0.1,-2.05,1.55));
#1417=VECTOR('',#1714,0.3345984425214);
#1418=CARTESIAN_POINT('',(0.04008188340197,-2.05,1.123785823988));
#1419=AXIS2_PLACEMENT_3D('',#1715,#1716,#1717);
#1420=CARTESIAN_POINT('',(-0.240081883402,-2.05,1.001214176012));
#1421=CARTESIAN_POINT('',(0.04008188340197,-2.05,1.123785823988));
#1422=VECTOR('',#1718,0.305803114957202);
#1423=CARTESIAN_POINT('',(-0.3,-2.05,0.9095984425214));
#1424=AXIS2_PLACEMENT_3D('',#1719,#1720,#1721);
#1425=CARTESIAN_POINT('',(-0.3,-2.05,0.7404015574786));
#1426=CARTESIAN_POINT('',(-0.3,-2.05,0.9095984425214));
#1427=VECTOR('',#1722,0.1691968850428);
#1428=CARTESIAN_POINT('',(-0.240081883402,-2.05,0.6487858239884));
#1429=AXIS2_PLACEMENT_3D('',#1723,#1724,#1725);
#1430=CARTESIAN_POINT('',(0.04008188340197,-2.05,0.5262141760116));
#1431=CARTESIAN_POINT('',(-0.240081883402,-2.05,0.6487858239884));
#1432=VECTOR('',#1726,0.305803114957202);
#1433=CARTESIAN_POINT('',(0.1,-2.05,0.4345984425214));
#1434=AXIS2_PLACEMENT_3D('',#1727,#1728,#1729);
#1435=CARTESIAN_POINT('',(0.1,-2.05,0.1));
#1436=CARTESIAN_POINT('',(0.1,-2.05,0.4345984425214));
#1437=VECTOR('',#1730,0.3345984425214);
#1438=AXIS2_PLACEMENT_3D('',#1731,#1732,#1733);
#1439=CARTESIAN_POINT('',(0.1,-1.67,0.1));
#1440=VECTOR('',#1734,0.38);
#1441=CARTESIAN_POINT('',(0.1,-1.67,0.4345984425214));
#1442=VECTOR('',#1735,0.38);
#1443=CARTESIAN_POINT('',(0.04008188340197,-1.67,0.5262141760116));
#1444=VECTOR('',#1736,0.38);
#1445=CARTESIAN_POINT('',(-0.240081883402,-1.67,0.6487858239884));
#1446=VECTOR('',#1737,0.38);
#1447=CARTESIAN_POINT('',(-0.3,-1.67,0.7404015574786));
#1448=VECTOR('',#1738,0.38);
#1449=CARTESIAN_POINT('',(-0.3,-1.67,0.9095984425214));
#1450=VECTOR('',#1739,0.38);
#1451=CARTESIAN_POINT('',(-0.240081883402,-2.05,1.001214176012));
#1452=VECTOR('',#1740,0.38);
#1453=CARTESIAN_POINT('',(0.04008188340197,-1.67,1.123785823988));
#1454=VECTOR('',#1741,0.38);
#1455=CARTESIAN_POINT('',(0.1,-1.67,1.215401557479));
#1456=VECTOR('',#1742,0.38);
#1457=CARTESIAN_POINT('',(0.1,-1.67,1.55));
#1458=VECTOR('',#1743,0.38);
#1459=CARTESIAN_POINT('',(0.87,-0.38,1.45));
#1460=VECTOR('',#1744,1.45);
#1461=AXIS2_PLACEMENT_3D('',#1745,#1746,#1747);
#1462=CARTESIAN_POINT('',(-0.5,-0.38,1.55));
#1463=CARTESIAN_POINT('',(-0.5,-0.38,1.65));
#1464=VECTOR('',#1748,0.1);
#1465=CARTESIAN_POINT('',(-0.6,-0.38,1.45));
#1466=AXIS2_PLACEMENT_3D('',#1749,#1750,#1751);
#1467=CARTESIAN_POINT('',(-0.86,-0.38,1.45));
#1468=CARTESIAN_POINT('',(-0.86,-0.38,1.45));
#1469=VECTOR('',#1752,0.26);
#1470=CARTESIAN_POINT('',(-0.86,-0.38,1.45));
#1471=VECTOR('',#1753,1.45);
#1472=CARTESIAN_POINT('',(-1.24,-0.76,1.45));
#1473=AXIS2_PLACEMENT_3D('',#1754,#1755,#1756);
#1474=CARTESIAN_POINT('',(-1.24,-0.76,1.45));
#1475=VECTOR('',#1757,1.45);
#1476=CARTESIAN_POINT('',(-1.62,-0.9,1.45));
#1477=CARTESIAN_POINT('',(-1.24,-0.9,1.45));
#1478=CARTESIAN_POINT('',(-1.62,-0.9,1.45));
#1479=VECTOR('',#1758,0.38);
#1480=CARTESIAN_POINT('',(-1.24,-0.76,1.45));
#1481=VECTOR('',#1759,0.14);
#1482=CARTESIAN_POINT('',(-0.6,0.0,1.45));
#1483=VECTOR('',#1760,0.38);
#1484=CARTESIAN_POINT('',(-1.62,-0.76,1.45));
#1485=AXIS2_PLACEMENT_3D('',#1761,#1762,#1763);
#1486=CARTESIAN_POINT('',(-1.62,-0.76,1.45));
#1487=VECTOR('',#1764,0.14);
#1488=CARTESIAN_POINT('',(-1.24,-1.0,1.55));
#1489=CARTESIAN_POINT('',(-1.62,-1.0,1.55));
#1490=CARTESIAN_POINT('',(-1.24,-1.0,1.55));
#1491=VECTOR('',#1765,0.38);
#1492=AXIS2_PLACEMENT_3D('',#1766,#1767,#1768);
#1493=AXIS2_PLACEMENT_3D('',#1769,#1770,#1771);
#1494=AXIS2_PLACEMENT_3D('',#1772,#1773,#1774);
#1495=AXIS2_PLACEMENT_3D('',#1775,#1776,#1777);
#1496=CARTESIAN_POINT('',(-1.62,-0.76,0.0));
#1497=VECTOR('',#1778,1.45);
#1498=CARTESIAN_POINT('',(-1.62,-1.24,0.0));
#1499=VECTOR('',#1779,1.65);
#1500=CARTESIAN_POINT('',(-0.86,-2.0,0.0));
#1501=VECTOR('',#1780,1.65);
#1502=CARTESIAN_POINT('',(-0.1,-2.0,1.55));
#1503=AXIS2_PLACEMENT_3D('',#1781,#1782,#1783);
#1504=CARTESIAN_POINT('',(-0.1,-2.0,0.1));
#1505=AXIS2_PLACEMENT_3D('',#1784,#1785,#1786);
#1506=CARTESIAN_POINT('',(-0.1,-2.0,0.4345984425214));
#1507=CARTESIAN_POINT('',(-0.1,-2.0,0.1));
#1508=VECTOR('',#1787,0.3345984425214);
#1509=CARTESIAN_POINT('',(-0.159918116598,-2.0,0.5262141760116));
#1510=AXIS2_PLACEMENT_3D('',#1788,#1789,#1790);
#1511=CARTESIAN_POINT('',(-0.440081883402,-2.0,0.6487858239884));
#1512=CARTESIAN_POINT('',(-0.440081883402,-2.0,0.6487858239884));
#1513=VECTOR('',#1791,0.305803114957202);
#1514=CARTESIAN_POINT('',(-0.5,-2.0,0.7404015574786));
#1515=AXIS2_PLACEMENT_3D('',#1792,#1793,#1794);
#1516=CARTESIAN_POINT('',(-0.5,-2.0,0.9095984425214));
#1517=CARTESIAN_POINT('',(-0.5,-2.0,0.9095984425214));
#1518=VECTOR('',#1795,0.1691968850428);
#1519=CARTESIAN_POINT('',(-0.440081883402,-2.0,1.001214176012));
#1520=AXIS2_PLACEMENT_3D('',#1796,#1797,#1798);
#1521=CARTESIAN_POINT('',(-0.159918116598,-2.0,1.123785823988));
#1522=CARTESIAN_POINT('',(-0.159918116598,-2.0,1.123785823988));
#1523=VECTOR('',#1799,0.305803114957202);
#1524=CARTESIAN_POINT('',(-0.1,-2.0,1.215401557479));
#1525=AXIS2_PLACEMENT_3D('',#1800,#1801,#1802);
#1526=CARTESIAN_POINT('',(-0.1,-2.0,1.55));
#1527=VECTOR('',#1803,0.3345984425214);
#1528=CARTESIAN_POINT('',(-0.1,-1.62,1.55));
#1529=CARTESIAN_POINT('',(-0.1,-2.0,1.55));
#1530=VECTOR('',#1804,0.38);
#1531=AXIS2_PLACEMENT_3D('',#1805,#1806,#1807);
#1532=CARTESIAN_POINT('',(-0.1,-1.62,1.215401557479));
#1533=CARTESIAN_POINT('',(-0.1,-1.62,1.55));
#1534=VECTOR('',#1808,0.3345984425214);
#1535=CARTESIAN_POINT('',(-0.159918116598,-1.62,1.123785823988));
#1536=AXIS2_PLACEMENT_3D('',#1809,#1810,#1811);
#1537=CARTESIAN_POINT('',(-0.440081883402,-1.62,1.001214176012));
#1538=CARTESIAN_POINT('',(-0.159918116598,-1.62,1.123785823988));
#1539=VECTOR('',#1812,0.305803114957202);
#1540=CARTESIAN_POINT('',(-0.5,-1.62,0.9095984425214));
#1541=AXIS2_PLACEMENT_3D('',#1813,#1814,#1815);
#1542=CARTESIAN_POINT('',(-0.5,-1.62,0.7404015574786));
#1543=CARTESIAN_POINT('',(-0.5,-1.62,0.9095984425214));
#1544=VECTOR('',#1816,0.1691968850428);
#1545=CARTESIAN_POINT('',(-0.440081883402,-1.62,0.6487858239884));
#1546=AXIS2_PLACEMENT_3D('',#1817,#1818,#1819);
#1547=CARTESIAN_POINT('',(-0.159918116598,-1.62,0.5262141760116));
#1548=CARTESIAN_POINT('',(-0.440081883402,-1.62,0.6487858239884));
#1549=VECTOR('',#1820,0.305803114957202);
#1550=CARTESIAN_POINT('',(-0.1,-1.62,0.4345984425214));
#1551=AXIS2_PLACEMENT_3D('',#1821,#1822,#1823);
#1552=CARTESIAN_POINT('',(-0.1,-1.62,0.1));
#1553=CARTESIAN_POINT('',(-0.1,-1.62,0.1));
#1554=VECTOR('',#1824,0.3345984425214);
#1555=AXIS2_PLACEMENT_3D('',#1825,#1826,#1827);
#1556=CARTESIAN_POINT('',(-0.86,-1.62,1.65));
#1557=VECTOR('',#1828,1.65);
#1558=CARTESIAN_POINT('',(-1.24,-1.24,1.65));
#1559=VECTOR('',#1829,1.65);
#1560=CARTESIAN_POINT('',(-0.1,-1.62,0.1));
#1561=VECTOR('',#1830,0.38);
#1562=CARTESIAN_POINT('',(-0.1,-1.62,0.4345984425214));
#1563=VECTOR('',#1831,0.38);
#1564=CARTESIAN_POINT('',(-0.159918116598,-1.62,0.5262141760116));
#1565=VECTOR('',#1832,0.38);
#1566=CARTESIAN_POINT('',(-0.440081883402,-2.0,0.6487858239884));
#1567=VECTOR('',#1833,0.38);
#1568=CARTESIAN_POINT('',(-0.5,-2.0,0.7404015574786));
#1569=VECTOR('',#1834,0.38);
#1570=CARTESIAN_POINT('',(-0.5,-2.0,0.9095984425214));
#1571=VECTOR('',#1835,0.38);
#1572=CARTESIAN_POINT('',(-0.440081883402,-2.0,1.001214176012));
#1573=VECTOR('',#1836,0.38);
#1574=CARTESIAN_POINT('',(-0.159918116598,-1.62,1.123785823988));
#1575=VECTOR('',#1837,0.38);
#1576=CARTESIAN_POINT('',(-0.1,-1.62,1.215401557479));
#1577=VECTOR('',#1838,0.38);
#1578=CARTESIAN_POINT('',(-0.5,0.0,1.55));
#1579=VECTOR('',#1839,0.38);
#1580=DIRECTION('',(1.0,0.0,0.0));
#1581=CARTESIAN_POINT('',(0.87,-1.29,0.0));
#1582=DIRECTION('',(0.0,0.0,1.0));
#1583=DIRECTION('',(0.0,-1.0,0.0));
#1584=DIRECTION('',(0.0,1.0,0.0));
#1585=CARTESIAN_POINT('',(0.87,-0.76,0.0));
#1586=DIRECTION('',(0.0,0.0,1.0));
#1587=DIRECTION('',(1.0,0.0,0.0));
#1588=DIRECTION('',(-1.0,0.0,0.0));
#1589=CARTESIAN_POINT('',(-0.86,-0.76,0.0));
#1590=DIRECTION('',(0.0,-0.0,1.0));
#1591=DIRECTION('',(0.0,1.0,0.0));
#1592=DIRECTION('',(0.0,-1.0,0.0));
#1593=CARTESIAN_POINT('',(-0.86,-1.24,0.0));
#1594=DIRECTION('',(0.0,0.0,1.0));
#1595=DIRECTION('',(-1.0,0.0,0.0));
#1596=DIRECTION('',(1.0,0.0,0.0));
#1597=DIRECTION('',(0.0,-1.0,0.0));
#1598=DIRECTION('',(1.0,0.0,0.0));
#1599=CARTESIAN_POINT('',(-0.86,-1.24,0.0));
#1600=DIRECTION('',(0.0,0.0,1.0));
#1601=DIRECTION('',(-1.0,0.0,0.0));
#1602=DIRECTION('',(0.0,-1.0,0.0));
#1603=CARTESIAN_POINT('',(-0.86,-0.76,0.0));
#1604=DIRECTION('',(0.0,-0.0,1.0));
#1605=DIRECTION('',(0.0,1.0,0.0));
#1606=DIRECTION('',(-1.0,0.0,0.0));
#1607=CARTESIAN_POINT('',(0.87,-0.76,0.0));
#1608=DIRECTION('',(0.0,0.0,1.0));
#1609=DIRECTION('',(1.0,0.0,0.0));
#1610=DIRECTION('',(0.0,-1.0,0.0));
#1611=CARTESIAN_POINT('',(0.87,-1.29,0.0));
#1612=DIRECTION('',(0.0,0.0,-1.0));
#1613=DIRECTION('',(1.0,0.0,0.0));
#1614=DIRECTION('',(-1.0,0.0,0.0));
#1615=DIRECTION('',(0.0,-1.0,0.0));
#1616=CARTESIAN_POINT('',(0.2,-1.67,0.1));
#1617=DIRECTION('',(0.0,1.0,0.0));
#1618=DIRECTION('',(0.0,0.0,-1.0));
#1619=DIRECTION('',(0.0,0.0,1.0));
#1620=CARTESIAN_POINT('',(0.0,-1.67,0.4345984425214));
#1621=DIRECTION('',(-0.0,1.0,0.0));
#1622=DIRECTION('',(0.400818834019697,0.0,0.916157334902194));
#1623=DIRECTION('',(-0.916157334902194,0.0,0.400818834019697));
#1624=CARTESIAN_POINT('',(-0.2,-1.67,0.7404015574786));
#1625=DIRECTION('',(0.0,-1.0,0.0));
#1626=DIRECTION('',(-1.0,0.0,0.0));
#1627=DIRECTION('',(0.0,0.0,1.0));
#1628=CARTESIAN_POINT('',(-0.2,-1.67,0.9095984425214));
#1629=DIRECTION('',(0.0,-1.0,0.0));
#1630=DIRECTION('',(-0.400818834019697,0.0,0.916157334902194));
#1631=DIRECTION('',(0.916157334902194,0.0,0.400818834019697));
#1632=CARTESIAN_POINT('',(0.0,-1.67,1.215401557479));
#1633=DIRECTION('',(-0.0,1.0,0.0));
#1634=DIRECTION('',(1.0,0.0,0.0));
#1635=DIRECTION('',(0.0,0.0,1.0));
#1636=CARTESIAN_POINT('',(0.2,-1.67,1.55));
#1637=DIRECTION('',(0.0,-1.0,0.0));
#1638=DIRECTION('',(0.0,0.0,1.0));
#1639=DIRECTION('',(-1.0,0.0,0.0));
#1640=DIRECTION('',(0.0,0.0,-1.0));
#1641=CARTESIAN_POINT('',(0.87,-1.29,1.65));
#1642=DIRECTION('',(0.0,0.0,1.0));
#1643=DIRECTION('',(0.0,-1.0,0.0));
#1644=DIRECTION('',(0.0,0.0,-1.0));
#1645=DIRECTION('',(0.0,-1.0,0.0));
#1646=CARTESIAN_POINT('',(1.25,-1.1,1.55));
#1647=DIRECTION('',(-1.0,0.0,0.0));
#1648=DIRECTION('',(0.0,0.0,1.0));
#1649=CARTESIAN_POINT('',(1.25,-0.9,1.55));
#1650=DIRECTION('',(1.0,0.0,0.0));
#1651=DIRECTION('',(0.0,-1.0,0.0));
#1652=DIRECTION('',(0.0,-1.0,0.0));
#1653=DIRECTION('',(0.0,0.0,-1.0));
#1654=DIRECTION('',(0.0,-1.0,0.0));
#1655=DIRECTION('',(-1.0,0.0,0.0));
#1656=DIRECTION('',(0.0,-1.0,0.0));
#1657=DIRECTION('',(-1.0,0.0,0.0));
#1658=DIRECTION('',(-1.0,0.0,0.0));
#1659=DIRECTION('',(0.0,-1.0,0.0));
#1660=CARTESIAN_POINT('',(-0.86,-1.24,1.65));
#1661=DIRECTION('',(0.0,0.0,1.0));
#1662=DIRECTION('',(-1.0,0.0,0.0));
#1663=DIRECTION('',(1.0,0.0,0.0));
#1664=DIRECTION('',(0.0,1.0,0.0));
#1665=DIRECTION('',(1.0,0.0,0.0));
#1666=CARTESIAN_POINT('',(-0.86,-1.24,1.65));
#1667=DIRECTION('',(0.0,0.0,1.0));
#1668=DIRECTION('',(-1.0,0.0,0.0));
#1669=DIRECTION('',(0.0,-1.0,0.0));
#1670=DIRECTION('',(0.0,-1.0,0.0));
#1671=DIRECTION('',(1.0,0.0,0.0));
#1672=CARTESIAN_POINT('',(0.87,-1.29,1.65));
#1673=DIRECTION('',(0.0,0.0,-1.0));
#1674=DIRECTION('',(1.0,0.0,0.0));
#1675=DIRECTION('',(0.0,1.0,0.0));
#1676=DIRECTION('',(-1.0,0.0,0.0));
#1677=DIRECTION('',(0.0,0.0,-1.0));
#1678=DIRECTION('',(0.0,-1.0,0.0));
#1679=DIRECTION('',(0.0,0.0,-1.0));
#1680=DIRECTION('',(-1.0,0.0,0.0));
#1681=DIRECTION('',(0.0,0.0,1.0));
#1682=DIRECTION('',(0.0,0.0,1.0));
#1683=DIRECTION('',(1.0,0.0,0.0));
#1684=CARTESIAN_POINT('',(-0.6,0.0,1.55));
#1685=DIRECTION('',(-0.0,1.0,0.0));
#1686=DIRECTION('',(1.0,0.0,0.0));
#1687=DIRECTION('',(0.0,0.0,-1.0));
#1688=CARTESIAN_POINT('',(0.6,0.0,1.55));
#1689=DIRECTION('',(0.0,1.0,0.0));
#1690=DIRECTION('',(0.0,0.0,-1.0));
#1691=DIRECTION('',(1.0,0.0,0.0));
#1692=DIRECTION('',(0.0,-1.0,0.0));
#1693=CARTESIAN_POINT('',(0.87,-0.76,1.45));
#1694=DIRECTION('',(0.0,0.0,1.0));
#1695=DIRECTION('',(1.0,0.0,0.0));
#1696=DIRECTION('',(0.0,-1.0,0.0));
#1697=DIRECTION('',(-1.0,0.0,0.0));
#1698=CARTESIAN_POINT('',(0.87,-0.76,1.45));
#1699=DIRECTION('',(0.0,0.0,1.0));
#1700=DIRECTION('',(1.0,0.0,0.0));
#1701=DIRECTION('',(-1.0,0.0,0.0));
#1702=CARTESIAN_POINT('',(1.63,-0.9,1.55));
#1703=DIRECTION('',(-1.0,0.0,0.0));
#1704=DIRECTION('',(0.0,0.0,-1.0));
#1705=CARTESIAN_POINT('',(1.63,-1.1,1.55));
#1706=DIRECTION('',(1.0,0.0,0.0));
#1707=DIRECTION('',(0.0,1.0,0.0));
#1708=DIRECTION('',(0.0,0.0,1.0));
#1709=DIRECTION('',(0.0,0.0,-1.0));
#1710=DIRECTION('',(0.0,0.0,-1.0));
#1711=CARTESIAN_POINT('',(0.2,-2.05,1.55));
#1712=DIRECTION('',(0.0,-1.0,0.0));
#1713=DIRECTION('',(0.0,0.0,1.0));
#1714=DIRECTION('',(0.0,0.0,-1.0));
#1715=CARTESIAN_POINT('',(0.0,-2.05,1.215401557479));
#1716=DIRECTION('',(-0.0,1.0,0.0));
#1717=DIRECTION('',(1.0,0.0,0.0));
#1718=DIRECTION('',(-0.916157334902194,0.0,-0.400818834019697));
#1719=CARTESIAN_POINT('',(-0.2,-2.05,0.9095984425214));
#1720=DIRECTION('',(0.0,-1.0,0.0));
#1721=DIRECTION('',(-0.400818834019697,0.0,0.916157334902194));
#1722=DIRECTION('',(0.0,0.0,-1.0));
#1723=CARTESIAN_POINT('',(-0.2,-2.05,0.7404015574786));
#1724=DIRECTION('',(0.0,-1.0,0.0));
#1725=DIRECTION('',(-1.0,0.0,0.0));
#1726=DIRECTION('',(0.916157334902194,0.0,-0.400818834019697));
#1727=CARTESIAN_POINT('',(0.0,-2.05,0.4345984425214));
#1728=DIRECTION('',(-0.0,1.0,0.0));
#1729=DIRECTION('',(0.400818834019697,0.0,0.916157334902194));
#1730=DIRECTION('',(0.0,0.0,-1.0));
#1731=CARTESIAN_POINT('',(0.2,-2.05,0.1));
#1732=DIRECTION('',(0.0,-1.0,0.0));
#1733=DIRECTION('',(-1.0,0.0,0.0));
#1734=DIRECTION('',(0.0,-1.0,0.0));
#1735=DIRECTION('',(0.0,-1.0,0.0));
#1736=DIRECTION('',(0.0,-1.0,0.0));
#1737=DIRECTION('',(0.0,-1.0,0.0));
#1738=DIRECTION('',(0.0,-1.0,0.0));
#1739=DIRECTION('',(0.0,-1.0,0.0));
#1740=DIRECTION('',(0.0,1.0,0.0));
#1741=DIRECTION('',(0.0,-1.0,0.0));
#1742=DIRECTION('',(0.0,-1.0,0.0));
#1743=DIRECTION('',(0.0,-1.0,0.0));
#1744=DIRECTION('',(0.0,0.0,-1.0));
#1745=CARTESIAN_POINT('',(0.6,-0.38,1.55));
#1746=DIRECTION('',(0.0,1.0,0.0));
#1747=DIRECTION('',(0.0,0.0,-1.0));
#1748=DIRECTION('',(0.0,0.0,-1.0));
#1749=CARTESIAN_POINT('',(-0.6,-0.38,1.55));
#1750=DIRECTION('',(-0.0,1.0,0.0));
#1751=DIRECTION('',(1.0,0.0,0.0));
#1752=DIRECTION('',(1.0,0.0,0.0));
#1753=DIRECTION('',(0.0,0.0,-1.0));
#1754=CARTESIAN_POINT('',(-0.86,-0.76,1.45));
#1755=DIRECTION('',(0.0,-0.0,1.0));
#1756=DIRECTION('',(0.0,1.0,0.0));
#1757=DIRECTION('',(0.0,0.0,-1.0));
#1758=DIRECTION('',(1.0,0.0,0.0));
#1759=DIRECTION('',(0.0,-1.0,0.0));
#1760=DIRECTION('',(0.0,-1.0,0.0));
#1761=CARTESIAN_POINT('',(-0.86,-0.76,1.45));
#1762=DIRECTION('',(0.0,-0.0,1.0));
#1763=DIRECTION('',(0.0,1.0,0.0));
#1764=DIRECTION('',(0.0,-1.0,0.0));
#1765=DIRECTION('',(-1.0,0.0,0.0));
#1766=CARTESIAN_POINT('',(-1.24,-0.9,1.55));
#1767=DIRECTION('',(-1.0,0.0,0.0));
#1768=DIRECTION('',(0.0,0.0,-1.0));
#1769=CARTESIAN_POINT('',(-1.62,-0.9,1.55));
#1770=DIRECTION('',(1.0,0.0,0.0));
#1771=DIRECTION('',(0.0,-1.0,0.0));
#1772=CARTESIAN_POINT('',(-1.24,-1.1,1.55));
#1773=DIRECTION('',(1.0,0.0,0.0));
#1774=DIRECTION('',(0.0,1.0,0.0));
#1775=CARTESIAN_POINT('',(-1.62,-1.1,1.55));
#1776=DIRECTION('',(-1.0,0.0,0.0));
#1777=DIRECTION('',(0.0,0.0,1.0));
#1778=DIRECTION('',(0.0,0.0,1.0));
#1779=DIRECTION('',(0.0,0.0,1.0));
#1780=DIRECTION('',(0.0,0.0,1.0));
#1781=CARTESIAN_POINT('',(-0.2,-2.0,1.55));
#1782=DIRECTION('',(0.0,-1.0,0.0));
#1783=DIRECTION('',(1.0,0.0,0.0));
#1784=CARTESIAN_POINT('',(-0.2,-2.0,0.1));
#1785=DIRECTION('',(0.0,-1.0,0.0));
#1786=DIRECTION('',(0.0,0.0,-1.0));
#1787=DIRECTION('',(0.0,0.0,1.0));
#1788=CARTESIAN_POINT('',(-0.2,-2.0,0.4345984425214));
#1789=DIRECTION('',(0.0,-1.0,0.0));
#1790=DIRECTION('',(1.0,0.0,0.0));
#1791=DIRECTION('',(0.916157334902194,0.0,-0.400818834019697));
#1792=CARTESIAN_POINT('',(-0.4,-2.0,0.7404015574786));
#1793=DIRECTION('',(0.0,1.0,0.0));
#1794=DIRECTION('',(-0.400818834019697,0.0,-0.916157334902194));
#1795=DIRECTION('',(0.0,0.0,-1.0));
#1796=CARTESIAN_POINT('',(-0.4,-2.0,0.9095984425214));
#1797=DIRECTION('',(0.0,1.0,0.0));
#1798=DIRECTION('',(-1.0,0.0,0.0));
#1799=DIRECTION('',(-0.916157334902194,0.0,-0.400818834019697));
#1800=CARTESIAN_POINT('',(-0.2,-2.0,1.215401557479));
#1801=DIRECTION('',(0.0,-1.0,0.0));
#1802=DIRECTION('',(0.400818834019697,0.0,-0.916157334902194));
#1803=DIRECTION('',(0.0,0.0,-1.0));
#1804=DIRECTION('',(0.0,1.0,0.0));
#1805=CARTESIAN_POINT('',(-0.2,-1.62,1.55));
#1806=DIRECTION('',(0.0,1.0,0.0));
#1807=DIRECTION('',(0.0,0.0,1.0));
#1808=DIRECTION('',(0.0,0.0,-1.0));
#1809=CARTESIAN_POINT('',(-0.2,-1.62,1.215401557479));
#1810=DIRECTION('',(-0.0,1.0,0.0));
#1811=DIRECTION('',(1.0,0.0,0.0));
#1812=DIRECTION('',(-0.916157334902194,0.0,-0.400818834019697));
#1813=CARTESIAN_POINT('',(-0.4,-1.62,0.9095984425214));
#1814=DIRECTION('',(0.0,-1.0,0.0));
#1815=DIRECTION('',(-0.400818834019697,0.0,0.916157334902194));
#1816=DIRECTION('',(0.0,0.0,-1.0));
#1817=CARTESIAN_POINT('',(-0.4,-1.62,0.7404015574786));
#1818=DIRECTION('',(0.0,-1.0,0.0));
#1819=DIRECTION('',(-1.0,0.0,0.0));
#1820=DIRECTION('',(0.916157334902194,0.0,-0.400818834019697));
#1821=CARTESIAN_POINT('',(-0.2,-1.62,0.4345984425214));
#1822=DIRECTION('',(-0.0,1.0,0.0));
#1823=DIRECTION('',(0.400818834019697,0.0,0.916157334902194));
#1824=DIRECTION('',(0.0,0.0,1.0));
#1825=CARTESIAN_POINT('',(-0.2,-1.62,0.1));
#1826=DIRECTION('',(-0.0,1.0,0.0));
#1827=DIRECTION('',(1.0,0.0,0.0));
#1828=DIRECTION('',(0.0,0.0,-1.0));
#1829=DIRECTION('',(0.0,0.0,-1.0));
#1830=DIRECTION('',(0.0,-1.0,0.0));
#1831=DIRECTION('',(0.0,-1.0,0.0));
#1832=DIRECTION('',(0.0,-1.0,0.0));
#1833=DIRECTION('',(0.0,1.0,0.0));
#1834=DIRECTION('',(0.0,1.0,0.0));
#1835=DIRECTION('',(0.0,1.0,0.0));
#1836=DIRECTION('',(0.0,1.0,0.0));
#1837=DIRECTION('',(0.0,-1.0,0.0));
#1838=DIRECTION('',(0.0,-1.0,0.0));
#1839=DIRECTION('',(0.0,-1.0,0.0));
ENDSEC;
END-ISO-10303-21;
